<svg id="svg" version="1.1" xmlns="http://www.w3.org/2000/svg" xmlns:xlink="http://www.w3.org/1999/xlink" width="400" height="400" viewBox="0, 0, 400,400"><g id="svgg"><path id="path0" d="M0.000 200.000 L 0.000 400.000 200.000 400.000 L 400.000 400.000 400.000 200.000 L 400.000 0.000 200.000 0.000 L 0.000 0.000 0.000 200.000 M146.600 85.412 C 147.480 85.729,148.706 85.991,149.324 85.994 C 149.989 85.998,150.344 86.167,150.193 86.411 C 150.054 86.636,149.728 86.795,149.470 86.763 C 147.058 86.466,145.900 87.555,147.349 88.758 C 148.415 89.642,147.878 100.784,146.726 101.669 L 145.800 102.382 146.800 102.397 C 148.299 102.420,149.207 103.083,148.189 103.411 C 147.755 103.551,146.988 103.830,146.484 104.031 L 145.568 104.398 145.797 149.499 C 146.046 198.444,146.605 243.164,147.222 263.400 C 147.552 274.228,147.921 282.376,148.993 302.600 C 149.605 314.127,149.841 314.957,152.400 314.562 C 155.905 314.020,159.902 313.917,160.176 314.362 C 160.332 314.614,160.311 314.785,160.130 314.741 C 159.619 314.620,153.200 317.729,153.200 318.098 C 153.200 318.647,154.540 318.979,154.709 318.472 C 154.796 318.212,155.428 318.000,156.114 318.000 C 156.800 318.000,159.170 317.650,161.381 317.221 C 170.981 315.362,182.740 314.591,195.200 315.005 C 203.231 315.272,215.013 316.237,215.742 316.688 C 215.992 316.842,217.007 317.096,217.998 317.251 C 223.341 318.089,225.328 318.627,226.256 319.487 C 227.482 320.623,229.030 320.691,229.310 319.623 C 229.555 318.685,228.473 317.600,227.292 317.600 C 226.827 317.600,226.350 317.443,226.232 317.252 C 226.114 317.060,225.509 316.802,224.888 316.678 C 224.268 316.554,222.599 315.906,221.180 315.238 L 218.600 314.024 222.513 314.012 C 225.507 314.003,226.476 314.131,226.640 314.561 C 227.043 315.610,230.800 316.369,230.800 315.400 C 230.800 315.044,230.935 314.836,231.100 314.938 C 231.265 315.040,231.411 314.466,231.425 313.662 C 231.439 312.858,231.661 306.350,231.919 299.200 C 232.177 292.050,232.482 282.330,232.596 277.600 C 232.710 272.870,232.983 261.710,233.204 252.800 C 233.425 243.890,233.777 229.670,233.986 221.200 C 234.196 212.730,234.285 183.030,234.186 155.200 L 234.005 104.600 232.929 103.726 L 231.852 102.852 232.995 102.566 L 234.138 102.279 233.238 101.551 C 232.600 101.034,232.415 100.582,232.603 99.992 C 232.748 99.533,232.646 98.897,232.374 98.569 C 232.015 98.136,231.964 97.042,232.184 94.488 C 232.350 92.570,232.486 90.595,232.485 90.100 C 232.485 89.605,232.614 89.200,232.773 89.200 C 233.603 89.200,232.632 86.808,231.657 86.451 L 230.600 86.063 231.620 86.032 C 232.181 86.014,232.852 85.788,233.111 85.529 C 233.518 85.122,237.868 84.934,238.242 85.308 C 238.690 85.757,238.647 88.649,238.167 90.242 C 237.243 93.314,237.434 97.033,238.649 99.600 L 239.690 101.800 239.409 214.000 C 239.175 307.063,239.035 326.405,238.585 327.400 C 238.287 328.060,237.730 329.081,237.348 329.669 C 236.737 330.608,236.715 330.931,237.171 332.312 C 238.291 335.705,233.669 338.780,225.888 339.820 C 224.960 339.944,223.480 340.218,222.600 340.430 C 218.494 341.415,197.773 342.780,186.800 342.788 C 173.054 342.797,158.258 341.276,151.200 339.127 C 144.215 337.000,140.916 334.577,142.414 332.673 C 143.458 331.346,143.407 330.703,142.100 328.692 L 141.000 327.000 140.679 214.600 L 140.357 102.200 141.355 100.200 C 142.780 97.342,143.032 94.681,142.221 91.039 C 141.284 86.827,141.463 85.475,143.000 85.149 C 144.760 84.776,144.855 84.783,146.600 85.412 M158.454 320.022 C 157.642 320.353,157.584 320.498,158.039 321.047 C 158.488 321.588,158.454 321.771,157.814 322.239 C 156.866 322.933,156.868 322.934,160.000 323.586 C 173.398 326.374,195.779 327.202,209.000 325.397 C 211.420 325.066,214.750 324.623,216.400 324.412 C 219.640 323.996,222.814 323.032,221.940 322.729 C 221.643 322.626,218.880 322.856,215.800 323.240 C 210.952 323.844,210.115 323.862,209.569 323.369 C 208.762 322.642,208.000 322.639,208.000 323.362 C 208.000 325.020,177.652 324.911,163.800 323.203 C 159.470 322.669,158.592 322.397,160.000 322.027 C 160.724 321.837,161.000 321.493,161.000 320.782 C 161.000 319.673,160.023 319.381,158.454 320.022 M144.400 325.166 C 144.400 325.414,144.895 325.828,145.500 326.086 C 146.105 326.344,146.908 326.812,147.285 327.126 C 147.671 327.448,149.501 327.845,151.485 328.038 C 153.418 328.225,155.585 328.482,156.300 328.608 C 157.015 328.733,157.600 328.668,157.600 328.462 C 157.600 328.256,157.015 328.000,156.300 327.893 C 153.506 327.474,150.162 326.752,149.400 326.404 C 148.960 326.202,147.970 325.869,147.200 325.662 C 146.430 325.456,145.485 325.158,145.100 325.001 C 144.678 324.828,144.400 324.894,144.400 325.166 M233.272 325.628 C 232.321 325.815,230.521 326.327,229.272 326.765 C 228.022 327.204,226.055 327.684,224.900 327.833 C 223.745 327.981,222.800 328.274,222.800 328.483 C 222.800 328.692,223.295 328.769,223.900 328.653 C 224.505 328.537,225.990 328.334,227.200 328.202 C 229.681 327.932,235.200 326.108,235.200 325.559 C 235.200 325.362,235.155 325.220,235.100 325.244 C 235.045 325.268,234.222 325.441,233.272 325.628 M159.705 329.087 C 160.314 329.179,161.214 329.177,161.705 329.082 C 162.197 328.987,161.700 328.911,160.600 328.914 C 159.500 328.917,159.097 328.995,159.705 329.087 M218.300 329.082 C 218.795 329.178,219.605 329.178,220.100 329.082 C 220.595 328.987,220.190 328.909,219.200 328.909 C 218.210 328.909,217.805 328.987,218.300 329.082 M156.100 335.876 C 156.485 335.976,157.115 335.976,157.500 335.876 C 157.885 335.775,157.570 335.693,156.800 335.693 C 156.030 335.693,155.715 335.775,156.100 335.876 M220.000 336.048 C 210.611 337.865,171.762 337.940,160.500 336.163 C 159.384 335.987,158.800 336.043,158.800 336.326 C 158.800 336.564,159.655 336.834,160.700 336.928 C 161.745 337.021,160.710 337.041,158.400 336.973 L 154.200 336.849 156.400 337.419 C 161.592 338.766,164.358 338.899,189.600 339.016 C 203.570 339.081,215.810 338.977,216.800 338.785 C 217.790 338.593,220.297 338.109,222.370 337.708 C 224.444 337.307,226.214 336.758,226.304 336.487 C 226.431 336.107,226.208 336.093,225.340 336.423 C 224.718 336.659,222.768 336.907,221.005 336.975 C 219.242 337.042,218.655 337.021,219.700 336.928 C 220.745 336.834,221.600 336.597,221.600 336.400 C 221.600 336.203,222.545 335.976,223.700 335.895 L 225.800 335.748 223.800 335.724 C 222.700 335.711,220.990 335.857,220.000 336.048 M170.200 339.600 C 171.328 340.085,175.600 340.085,175.600 339.600 C 175.600 339.365,174.319 339.212,172.500 339.228 C 170.396 339.247,169.657 339.367,170.200 339.600 M205.000 339.600 C 204.705 340.078,208.508 340.078,210.000 339.600 C 210.713 339.372,210.174 339.268,208.124 339.240 C 206.542 339.218,205.136 339.380,205.000 339.600 M183.725 340.299 C 187.424 340.366,193.364 340.365,196.925 340.299 C 200.486 340.233,197.460 340.179,190.200 340.179 C 182.940 340.179,180.026 340.233,183.725 340.299 " stroke="none" fill="#fbfbfb" fill-rule="evenodd"></path><path id="path1" d="M143.200 85.585 C 142.006 85.885,141.811 87.510,142.638 90.259 C 143.826 94.206,144.036 97.707,143.136 98.546 C 142.682 98.968,142.054 99.931,141.738 100.686 C 141.098 102.218,141.104 95.237,141.561 309.004 L 141.600 327.008 142.600 328.087 C 143.150 328.680,143.600 329.399,143.600 329.684 C 143.600 330.627,145.763 332.229,148.200 333.091 C 150.393 333.867,153.216 334.440,160.400 335.570 C 173.394 337.613,222.071 337.265,218.738 335.153 C 218.415 334.948,219.478 334.809,221.400 334.803 C 224.761 334.793,229.245 334.226,230.600 333.638 C 231.040 333.447,232.189 333.054,233.153 332.764 C 235.178 332.155,235.898 331.545,236.251 330.138 C 236.390 329.585,236.930 328.706,237.452 328.185 L 238.400 327.236 238.442 312.518 C 238.466 304.423,238.540 275.930,238.607 249.200 C 238.675 222.470,238.853 178.419,239.004 151.308 L 239.278 102.016 238.257 100.190 C 236.999 97.939,236.558 94.459,237.219 92.000 C 237.485 91.010,237.785 89.188,237.884 87.950 L 238.066 85.700 236.815 85.517 C 235.262 85.289,235.307 85.204,235.050 88.811 C 234.933 90.455,234.628 92.396,234.371 93.124 C 233.837 94.640,234.445 98.750,235.431 100.286 C 236.310 101.655,236.161 102.795,235.100 102.825 L 234.200 102.851 235.059 103.197 C 235.532 103.388,236.062 103.777,236.238 104.062 C 236.668 104.757,236.478 192.571,236.000 214.000 C 235.792 223.350,235.431 239.460,235.198 249.800 C 234.966 260.140,234.605 271.120,234.396 274.200 C 234.187 277.280,233.741 286.280,233.405 294.200 C 233.069 302.120,232.621 312.281,232.410 316.780 C 231.980 325.947,231.907 325.539,233.850 324.836 C 234.911 324.453,235.396 324.436,235.731 324.771 C 236.375 325.415,235.617 326.464,234.171 326.930 C 231.526 327.782,231.315 330.281,233.924 329.857 C 235.188 329.652,235.256 329.684,234.569 330.158 C 233.178 331.117,228.012 332.581,223.200 333.380 C 221.110 333.727,218.399 334.188,217.176 334.405 C 215.953 334.622,214.132 334.800,213.131 334.800 C 212.129 334.800,210.430 334.966,209.355 335.169 C 208.280 335.372,205.003 335.588,202.074 335.649 C 199.145 335.710,196.667 335.892,196.567 336.053 C 196.275 336.526,174.336 335.851,169.800 335.228 C 168.260 335.017,164.750 334.554,162.000 334.200 C 159.250 333.846,156.100 333.387,155.000 333.181 C 153.900 332.974,152.550 332.909,152.000 333.037 C 151.216 333.219,151.130 333.177,151.600 332.841 C 152.118 332.471,152.105 332.411,151.500 332.406 C 151.115 332.403,150.800 332.576,150.800 332.790 C 150.800 333.254,148.263 332.833,148.067 332.337 C 147.993 332.151,147.678 332.000,147.367 332.000 C 147.055 332.000,146.800 331.774,146.800 331.498 C 146.800 331.221,146.259 330.756,145.598 330.463 C 144.113 329.806,144.408 329.062,145.914 329.665 C 146.511 329.904,147.360 330.245,147.800 330.423 C 149.820 331.238,154.102 331.804,160.085 332.046 C 163.100 332.168,163.451 332.254,162.685 332.680 C 161.865 333.136,161.917 333.173,163.400 333.189 C 164.280 333.198,166.260 333.298,167.800 333.410 C 169.457 333.531,170.289 333.478,169.838 333.280 C 169.411 333.093,174.594 332.953,181.638 332.963 C 189.842 332.973,192.188 333.052,188.400 333.189 C 185.210 333.305,182.780 333.512,183.000 333.650 C 184.318 334.473,202.729 334.703,209.000 333.974 C 211.200 333.719,214.350 333.370,216.000 333.198 C 223.181 332.452,228.757 331.368,229.294 330.613 C 230.135 329.431,229.624 328.295,228.365 328.547 C 222.961 329.628,200.459 330.784,204.600 329.768 C 205.700 329.498,207.804 329.260,209.276 329.238 C 210.748 329.217,212.047 329.047,212.163 328.859 C 212.279 328.672,214.495 328.411,217.087 328.279 C 219.679 328.147,222.430 327.875,223.200 327.675 C 223.970 327.475,225.590 327.080,226.800 326.798 C 229.405 326.192,229.586 325.978,229.594 323.500 C 229.601 321.366,228.687 320.977,226.462 322.168 C 224.271 323.340,219.944 324.800,218.660 324.800 C 217.927 324.800,215.909 325.163,214.175 325.606 C 212.440 326.050,210.207 326.409,209.211 326.404 C 208.215 326.399,200.965 326.503,193.099 326.636 C 176.567 326.915,169.751 326.378,158.164 323.886 C 156.824 323.598,155.250 323.490,154.666 323.646 C 154.082 323.802,153.502 323.766,153.378 323.565 C 153.254 323.364,153.388 323.199,153.676 323.198 C 153.964 323.196,153.684 322.926,153.054 322.598 C 151.698 321.890,150.261 321.832,149.127 322.439 C 148.082 322.998,144.976 321.515,144.659 320.306 C 144.466 319.567,144.597 319.518,146.263 319.706 L 148.077 319.910 147.845 318.255 C 147.717 317.345,147.432 312.010,147.211 306.400 C 146.834 296.814,146.619 292.269,145.585 272.000 C 144.810 256.819,144.005 205.752,143.737 154.800 C 143.451 100.405,143.349 103.594,145.400 103.089 C 146.010 102.940,145.938 102.882,145.100 102.846 C 143.838 102.793,143.850 102.821,144.458 101.326 C 145.801 98.024,146.100 91.204,145.013 88.688 C 144.843 88.296,144.809 87.457,144.935 86.824 C 145.195 85.525,144.739 85.199,143.200 85.585 M151.874 316.180 C 149.813 316.914,148.794 317.914,148.832 319.162 C 148.849 319.733,148.961 319.953,149.082 319.650 C 149.460 318.697,150.790 317.578,152.728 316.583 C 154.769 315.534,154.302 315.313,151.874 316.180 M153.329 325.188 C 154.941 327.104,162.924 329.091,169.606 329.240 C 173.525 329.327,173.355 329.921,169.400 329.960 C 160.612 330.047,147.697 328.389,145.474 326.888 C 142.125 324.628,143.428 323.870,148.106 325.357 C 149.918 325.932,151.715 326.403,152.100 326.402 C 152.955 326.400,153.031 325.374,152.200 325.055 C 151.870 324.929,151.600 324.639,151.600 324.413 C 151.600 323.662,152.315 323.983,153.329 325.188 M222.000 325.720 C 222.000 326.583,221.109 327.200,219.862 327.200 L 218.683 327.200 219.762 326.200 C 220.931 325.117,222.000 324.888,222.000 325.720 M178.400 330.400 C 178.400 330.906,177.583 330.906,176.800 330.400 C 176.332 330.098,176.443 330.011,177.300 330.006 C 177.905 330.003,178.400 330.180,178.400 330.400 M153.600 338.000 C 154.150 338.176,155.050 338.317,155.600 338.313 C 156.498 338.306,156.478 338.274,155.400 338.000 C 153.708 337.569,152.256 337.569,153.600 338.000 M224.800 337.888 C 223.647 338.095,222.724 338.803,223.620 338.794 C 223.939 338.791,225.010 338.533,226.000 338.221 C 227.756 337.667,227.079 337.480,224.800 337.888 M159.954 339.393 C 162.830 340.045,170.388 340.945,170.664 340.669 C 170.763 340.570,169.349 340.295,167.522 340.059 C 165.695 339.822,163.480 339.524,162.600 339.396 C 158.521 338.802,157.340 338.801,159.954 339.393 M220.300 339.082 C 220.795 339.178,221.605 339.178,222.100 339.082 C 222.595 338.987,222.190 338.909,221.200 338.909 C 220.210 338.909,219.805 338.987,220.300 339.082 M214.500 339.731 C 212.465 339.951,210.800 340.242,210.800 340.379 C 210.800 340.756,218.543 339.985,218.980 339.565 C 219.216 339.339,219.140 339.225,218.780 339.267 C 218.461 339.303,216.535 339.512,214.500 339.731 M204.400 340.800 L 200.200 341.043 204.200 341.094 C 206.400 341.121,208.560 340.989,209.000 340.800 C 209.440 340.611,209.530 340.479,209.200 340.506 C 208.870 340.534,206.710 340.666,204.400 340.800 M174.517 341.097 C 176.011 341.174,178.351 341.174,179.717 341.096 C 181.082 341.018,179.860 340.955,177.000 340.955 C 174.140 340.956,173.022 341.020,174.517 341.097 " stroke="none" fill="#646464" fill-rule="evenodd"></path><path id="path2" d="M144.761 85.454 C 144.971 85.560,145.042 86.265,144.919 87.020 C 144.793 87.800,144.895 88.632,145.155 88.946 C 145.407 89.250,145.514 89.758,145.392 90.075 C 145.271 90.393,145.338 91.090,145.543 91.626 C 145.863 92.466,145.904 92.380,145.842 90.999 C 145.802 90.119,145.628 89.169,145.455 88.889 C 145.282 88.608,145.198 87.726,145.270 86.927 C 145.354 85.987,145.220 85.438,144.890 85.368 C 144.609 85.309,144.551 85.347,144.761 85.454 M234.738 88.700 C 234.703 88.865,234.635 89.450,234.586 90.000 C 234.537 90.550,234.380 91.630,234.238 92.400 C 234.006 93.654,234.024 93.696,234.415 92.800 C 234.817 91.880,235.222 88.400,234.928 88.400 C 234.857 88.400,234.772 88.535,234.738 88.700 M236.914 94.600 C 236.917 95.700,236.995 96.103,237.087 95.495 C 237.179 94.886,237.177 93.986,237.082 93.495 C 236.987 93.003,236.911 93.500,236.914 94.600 M145.862 94.700 C 145.380 97.962,144.895 100.252,144.458 101.326 C 143.890 102.723,143.890 102.800,144.467 102.800 C 144.723 102.800,144.831 102.698,144.706 102.573 C 144.582 102.448,144.808 101.412,145.209 100.271 C 145.610 99.130,146.065 97.072,146.221 95.698 C 146.524 93.020,146.231 92.205,145.862 94.700 M143.103 95.787 C 142.832 98.247,142.946 98.820,143.579 98.173 C 143.783 97.965,143.817 96.829,143.656 95.600 L 143.367 93.400 143.103 95.787 M234.212 97.540 C 234.422 99.275,235.949 102.759,235.982 101.580 C 235.992 101.239,235.797 100.757,235.549 100.509 C 235.301 100.261,234.852 99.100,234.550 97.929 C 234.028 95.905,234.011 95.886,234.212 97.540 M144.047 103.744 C 143.718 104.140,143.624 113.329,143.700 137.644 L 143.805 171.000 143.902 137.520 C 143.994 106.116,144.043 104.014,144.700 103.632 C 145.085 103.408,145.197 103.219,144.949 103.212 C 144.701 103.205,144.295 103.445,144.047 103.744 M235.511 103.823 C 236.341 104.404,236.406 104.779,236.486 109.523 L 236.573 114.600 236.699 109.646 C 236.827 104.620,236.464 103.200,235.049 103.200 C 234.814 103.200,235.022 103.480,235.511 103.823 M140.991 138.000 C 140.991 156.810,141.040 164.505,141.100 155.100 C 141.160 145.695,141.160 130.305,141.100 120.900 C 141.040 111.495,140.991 119.190,140.991 138.000 M236.193 159.800 C 236.193 184.660,236.241 194.771,236.300 182.269 C 236.359 169.767,236.359 149.427,236.300 137.069 C 236.241 124.711,236.193 134.940,236.193 159.800 M238.990 178.200 C 238.991 195.580,239.040 202.632,239.100 193.870 C 239.160 185.109,239.160 170.889,239.100 162.270 C 239.040 153.652,238.990 160.820,238.990 178.200 M141.361 192.400 C 141.361 195.810,141.422 197.205,141.497 195.500 C 141.572 193.795,141.572 191.005,141.497 189.300 C 141.422 187.595,141.361 188.990,141.361 192.400 M144.312 216.400 C 144.418 225.750,144.572 233.475,144.653 233.567 C 144.887 233.832,144.720 216.178,144.405 207.400 C 144.231 202.564,144.194 206.124,144.312 216.400 M141.314 208.200 C 141.317 209.300,141.395 209.703,141.487 209.095 C 141.579 208.486,141.577 207.586,141.482 207.095 C 141.387 206.603,141.311 207.100,141.314 208.200 M235.458 220.688 C 234.918 242.882,234.713 256.191,234.913 256.000 C 235.164 255.759,236.119 210.786,235.877 210.544 C 235.785 210.451,235.596 215.016,235.458 220.688 M238.551 236.400 C 238.551 238.930,238.616 239.965,238.696 238.700 C 238.775 237.435,238.775 235.365,238.696 234.100 C 238.616 232.835,238.551 233.870,238.551 236.400 M141.384 254.400 C 141.384 263.970,141.436 267.885,141.500 263.100 C 141.563 258.315,141.563 250.485,141.500 245.700 C 141.436 240.915,141.384 244.830,141.384 254.400 M144.968 245.400 C 144.968 249.800,145.026 251.655,145.098 249.521 C 145.170 247.388,145.170 243.788,145.099 241.521 C 145.027 239.255,144.968 241.000,144.968 245.400 M238.537 248.200 C 238.539 249.960,238.609 250.630,238.693 249.689 C 238.778 248.749,238.777 247.309,238.691 246.489 C 238.605 245.670,238.536 246.440,238.537 248.200 M145.240 262.433 C 145.262 265.605,145.413 269.730,145.575 271.600 C 145.746 273.564,145.790 271.199,145.680 266.000 C 145.575 261.050,145.424 256.925,145.344 256.833 C 145.265 256.742,145.218 259.262,145.240 262.433 M234.265 268.731 C 234.080 272.983,234.016 276.550,234.123 276.656 C 234.419 276.953,234.879 267.389,234.731 264.000 C 234.646 262.060,234.481 263.731,234.265 268.731 M238.509 269.600 C 238.509 270.590,238.587 270.995,238.682 270.500 C 238.778 270.005,238.778 269.195,238.682 268.700 C 238.587 268.205,238.509 268.610,238.509 269.600 M146.289 285.600 C 146.403 289.010,146.565 291.875,146.648 291.967 C 146.899 292.243,146.743 286.433,146.401 282.800 C 146.169 280.336,146.138 281.107,146.289 285.600 M233.720 283.600 C 233.720 284.810,233.795 285.305,233.887 284.700 C 233.978 284.095,233.978 283.105,233.887 282.500 C 233.795 281.895,233.720 282.390,233.720 283.600 M141.320 287.600 C 141.320 288.810,141.395 289.305,141.487 288.700 C 141.578 288.095,141.578 287.105,141.487 286.500 C 141.395 285.895,141.320 286.390,141.320 287.600 M238.509 288.000 C 238.509 288.990,238.587 289.395,238.682 288.900 C 238.778 288.405,238.778 287.595,238.682 287.100 C 238.587 286.605,238.509 287.010,238.509 288.000 M233.337 290.600 C 233.339 292.360,233.409 293.030,233.493 292.089 C 233.578 291.149,233.577 289.709,233.491 288.889 C 233.405 288.070,233.336 288.840,233.337 290.600 M141.384 308.800 C 141.384 318.810,141.436 322.905,141.500 317.900 C 141.563 312.895,141.563 304.705,141.500 299.700 C 141.436 294.695,141.384 298.790,141.384 308.800 M238.584 309.400 C 238.584 319.080,238.636 322.983,238.700 318.073 C 238.763 313.163,238.763 305.243,238.700 300.473 C 238.636 295.703,238.584 299.720,238.584 309.400 M146.931 298.600 C 146.933 300.140,147.005 300.721,147.092 299.891 C 147.179 299.061,147.177 297.801,147.089 297.091 C 147.000 296.381,146.929 297.060,146.931 298.600 M232.931 299.000 C 232.933 300.540,233.005 301.121,233.092 300.291 C 233.179 299.461,233.177 298.201,233.089 297.491 C 233.000 296.781,232.929 297.460,232.931 299.000 M147.350 307.400 C 147.351 309.820,147.416 310.758,147.496 309.485 C 147.576 308.212,147.575 306.232,147.494 305.085 C 147.414 303.938,147.349 304.980,147.350 307.400 M232.546 311.000 C 232.547 313.200,232.614 314.049,232.695 312.887 C 232.776 311.724,232.776 309.924,232.693 308.887 C 232.611 307.849,232.545 308.800,232.546 311.000 M147.737 315.000 C 147.739 316.760,147.809 317.430,147.893 316.489 C 147.978 315.549,147.977 314.109,147.891 313.289 C 147.805 312.470,147.736 313.240,147.737 315.000 M153.939 315.554 C 154.334 315.804,154.147 316.010,153.239 316.327 C 152.557 316.564,152.000 316.860,152.000 316.985 C 152.000 317.109,152.652 316.938,153.449 316.605 C 154.246 316.272,154.966 316.000,155.049 316.000 C 155.132 316.000,155.200 315.820,155.200 315.600 C 155.200 315.380,154.795 315.203,154.300 315.206 C 153.648 315.211,153.548 315.306,153.939 315.554 M224.400 315.545 C 224.400 315.734,224.850 315.803,225.400 315.698 C 225.984 315.586,226.400 315.693,226.400 315.953 C 226.400 316.199,226.602 316.400,226.849 316.400 C 227.159 316.400,227.144 316.215,226.800 315.800 C 226.271 315.163,224.400 314.963,224.400 315.545 M186.500 315.897 C 187.985 315.974,190.415 315.974,191.900 315.897 C 193.385 315.820,192.170 315.757,189.200 315.757 C 186.230 315.757,185.015 315.820,186.500 315.897 M149.652 317.018 C 148.987 317.577,148.319 318.424,148.169 318.899 C 148.018 319.374,147.613 320.041,147.270 320.381 C 146.705 320.940,146.670 320.932,146.910 320.300 C 147.130 319.719,146.945 319.600,145.825 319.600 C 144.398 319.600,144.138 320.860,145.460 321.368 C 145.797 321.497,145.935 321.418,145.787 321.179 C 145.456 320.644,147.701 321.172,148.055 321.713 C 148.196 321.927,148.511 321.979,148.755 321.828 C 149.000 321.676,149.200 321.659,149.200 321.789 C 149.200 321.919,148.795 322.205,148.300 322.424 C 147.442 322.804,147.447 322.811,148.400 322.576 C 148.950 322.441,150.030 322.202,150.800 322.044 L 152.200 321.758 150.700 321.248 C 148.222 320.405,148.119 318.248,150.487 316.804 C 151.209 316.363,151.589 316.002,151.331 316.001 C 151.073 316.001,150.317 316.458,149.652 317.018 M229.292 317.275 C 229.379 317.536,229.664 317.821,229.925 317.908 C 230.218 318.006,230.307 317.823,230.157 317.433 C 229.878 316.706,229.052 316.555,229.292 317.275 M231.985 318.600 C 231.926 319.480,231.836 320.380,231.785 320.600 C 231.734 320.820,231.659 321.630,231.618 322.400 C 231.558 323.531,231.483 323.646,231.227 323.000 C 231.053 322.560,230.978 322.020,231.059 321.800 C 231.144 321.573,230.386 321.378,229.304 321.349 C 228.257 321.320,227.895 321.377,228.500 321.475 C 230.327 321.771,230.072 326.040,228.200 326.507 C 227.439 326.697,227.442 326.709,228.251 326.754 C 228.719 326.779,229.311 326.548,229.567 326.239 C 229.823 325.931,230.459 325.571,230.980 325.441 C 231.947 325.198,232.844 319.939,232.288 317.765 C 232.178 317.333,232.046 317.696,231.985 318.600 M221.600 319.520 C 221.600 320.031,223.760 321.108,224.356 320.895 C 224.723 320.764,224.806 320.867,224.600 321.200 C 224.405 321.515,224.471 321.643,224.774 321.542 C 225.769 321.210,225.346 320.685,223.500 319.960 C 222.455 319.549,221.600 319.352,221.600 319.520 M152.600 322.400 C 152.736 322.620,153.117 322.800,153.447 322.800 C 153.777 322.800,153.936 322.620,153.800 322.400 C 153.664 322.180,153.283 322.000,152.953 322.000 C 152.623 322.000,152.464 322.180,152.600 322.400 M153.698 323.066 C 153.421 323.177,153.282 323.409,153.388 323.581 C 153.641 323.990,155.600 323.611,155.600 323.153 C 155.600 322.778,154.534 322.729,153.698 323.066 M151.600 324.413 C 151.600 324.639,151.870 324.929,152.200 325.055 C 153.022 325.371,152.957 326.306,152.100 326.499 C 151.715 326.586,152.132 326.649,153.027 326.638 L 154.653 326.617 153.462 325.309 C 152.253 323.980,151.600 323.666,151.600 324.413 M160.600 324.400 C 161.040 324.589,161.670 324.744,162.000 324.744 C 162.378 324.744,162.304 324.617,161.800 324.400 C 161.360 324.211,160.730 324.056,160.400 324.056 C 160.022 324.056,160.096 324.183,160.600 324.400 M166.500 325.476 C 166.885 325.576,167.515 325.576,167.900 325.476 C 168.285 325.375,167.970 325.293,167.200 325.293 C 166.430 325.293,166.115 325.375,166.500 325.476 M219.762 326.200 L 218.683 327.200 219.862 327.200 C 221.109 327.200,222.000 326.583,222.000 325.720 C 222.000 324.888,220.931 325.117,219.762 326.200 M209.800 326.000 C 208.653 326.292,208.671 326.306,210.200 326.325 C 211.080 326.335,212.160 326.189,212.600 326.000 C 213.653 325.547,211.579 325.547,209.800 326.000 M205.700 326.276 C 206.085 326.376,206.715 326.376,207.100 326.276 C 207.485 326.175,207.170 326.093,206.400 326.093 C 205.630 326.093,205.315 326.175,205.700 326.276 M177.105 326.683 C 177.602 326.779,178.322 326.775,178.705 326.675 C 179.087 326.575,178.680 326.496,177.800 326.501 C 176.920 326.505,176.607 326.587,177.105 326.683 M201.905 326.683 C 202.402 326.779,203.122 326.775,203.505 326.675 C 203.887 326.575,203.480 326.496,202.600 326.501 C 201.720 326.505,201.407 326.587,201.905 326.683 M156.346 327.416 C 157.086 327.737,157.896 327.993,158.146 327.984 C 158.396 327.976,157.994 327.706,157.254 327.384 C 156.514 327.063,155.704 326.807,155.454 326.816 C 155.204 326.824,155.606 327.094,156.346 327.416 M232.145 327.689 C 231.979 327.958,231.892 328.858,231.952 329.689 C 232.049 331.028,231.955 331.204,231.131 331.232 C 230.619 331.249,230.434 331.357,230.720 331.472 C 231.274 331.694,233.295 330.996,234.569 330.143 C 235.249 329.688,235.173 329.655,233.924 329.857 C 232.424 330.101,231.520 328.640,232.539 327.621 C 232.771 327.389,232.845 327.200,232.704 327.200 C 232.563 327.200,232.311 327.420,232.145 327.689 M229.242 328.426 C 229.537 328.608,229.629 329.227,229.486 330.060 L 229.256 331.400 229.829 330.100 C 230.144 329.385,230.582 328.800,230.801 328.800 C 231.021 328.800,231.200 328.650,231.200 328.467 C 231.200 328.283,230.653 328.133,229.984 328.133 C 229.306 328.133,228.978 328.263,229.242 328.426 M212.251 328.717 C 212.143 328.892,213.258 328.972,214.728 328.895 C 218.675 328.690,219.013 328.499,215.524 328.446 C 213.832 328.421,212.359 328.543,212.251 328.717 M144.659 329.475 C 144.523 329.610,144.725 329.958,145.106 330.248 C 145.938 330.879,146.400 330.939,146.400 330.414 C 146.400 329.917,144.982 329.151,144.659 329.475 M159.705 329.487 C 160.314 329.579,161.214 329.577,161.705 329.482 C 162.197 329.387,161.700 329.311,160.600 329.314 C 159.500 329.317,159.097 329.395,159.705 329.487 M169.800 329.623 C 170.680 329.805,171.850 329.946,172.400 329.937 L 173.400 329.920 172.400 329.600 C 171.850 329.424,170.680 329.283,169.800 329.286 L 168.200 329.292 169.800 329.623 M204.600 329.791 C 201.755 330.522,204.178 330.551,207.400 329.824 C 209.614 329.324,209.676 329.282,208.200 329.279 C 207.320 329.278,205.700 329.508,204.600 329.791 M219.700 329.476 C 220.085 329.576,220.715 329.576,221.100 329.476 C 221.485 329.375,221.170 329.293,220.400 329.293 C 219.630 329.293,219.315 329.375,219.700 329.476 M176.800 330.400 C 177.583 330.906,178.400 330.906,178.400 330.400 C 178.400 330.180,177.905 330.003,177.300 330.006 C 176.443 330.011,176.332 330.098,176.800 330.400 M144.370 331.347 C 145.452 332.523,145.666 332.638,145.380 331.891 C 145.272 331.612,144.783 331.138,144.292 330.839 C 143.441 330.320,143.445 330.344,144.370 331.347 M146.800 331.407 C 146.800 331.733,147.070 332.000,147.400 332.000 C 148.070 332.000,148.222 332.659,147.600 332.867 C 147.380 332.940,148.010 333.000,149.000 333.000 C 149.990 333.000,150.800 332.865,150.800 332.700 C 150.800 332.535,151.115 332.403,151.500 332.406 C 152.098 332.411,152.113 332.469,151.600 332.800 C 151.067 333.145,151.067 333.188,151.600 333.188 C 151.930 333.188,152.461 333.023,152.779 332.821 C 153.521 332.352,151.601 331.802,150.356 332.127 C 149.899 332.247,148.912 332.000,148.163 331.579 C 147.036 330.946,146.800 330.916,146.800 331.407 M150.000 331.280 C 150.000 331.456,150.630 331.600,151.400 331.600 C 152.170 331.600,152.800 331.530,152.800 331.444 C 152.800 331.358,152.170 331.214,151.400 331.124 C 150.630 331.034,150.000 331.104,150.000 331.280 M158.995 332.287 C 159.872 332.382,160.805 332.638,161.068 332.857 C 161.390 333.124,161.877 333.080,162.556 332.725 C 163.476 332.243,163.293 332.192,160.483 332.155 C 158.787 332.133,158.118 332.192,158.995 332.287 M221.485 332.401 C 220.211 332.564,219.067 332.800,218.942 332.924 C 218.598 333.269,223.314 332.742,224.000 332.359 C 224.665 331.988,224.722 331.987,221.485 332.401 M154.800 333.164 C 156.167 333.584,161.599 334.021,160.600 333.630 C 160.160 333.458,158.450 333.214,156.800 333.087 C 155.150 332.960,154.250 332.995,154.800 333.164 M169.838 333.279 C 170.288 333.475,169.289 333.541,167.400 333.439 C 164.913 333.305,164.556 333.345,165.800 333.619 C 167.476 333.989,168.743 334.035,180.800 334.160 C 184.870 334.202,187.210 334.178,186.000 334.107 C 181.567 333.847,182.751 333.395,188.400 333.189 C 192.188 333.052,189.842 332.973,181.638 332.963 C 174.638 332.954,169.414 333.094,169.838 333.279 M212.400 333.620 C 211.726 333.849,212.051 333.884,213.400 333.728 C 214.500 333.601,215.475 333.431,215.567 333.349 C 215.882 333.068,213.399 333.280,212.400 333.620 M220.000 333.623 C 219.574 333.914,219.980 333.955,221.400 333.765 C 222.500 333.618,223.475 333.431,223.567 333.349 C 223.968 332.990,220.539 333.254,220.000 333.623 M145.880 334.386 C 146.124 335.319,148.164 336.599,150.051 337.004 C 150.793 337.164,151.574 337.398,151.786 337.524 C 151.999 337.650,152.989 337.787,153.986 337.827 C 156.071 337.911,155.231 337.474,152.400 337.002 C 150.470 336.681,147.033 335.234,147.378 334.888 C 147.591 334.676,146.417 333.636,145.937 333.613 C 145.793 333.606,145.767 333.954,145.880 334.386 M233.100 333.876 C 232.715 333.976,232.400 334.284,232.400 334.560 C 232.400 334.882,231.936 335.021,231.100 334.947 C 230.385 334.885,230.115 334.929,230.500 335.046 C 230.885 335.163,231.200 335.526,231.200 335.853 C 231.200 336.180,231.036 336.346,230.836 336.222 C 230.186 335.820,229.047 336.453,229.666 336.872 C 230.033 337.119,229.824 337.209,229.000 337.156 C 228.340 337.114,227.350 337.122,226.800 337.174 L 225.800 337.269 226.912 337.603 C 228.512 338.084,232.644 336.718,232.126 335.880 C 231.980 335.643,232.078 335.601,232.363 335.777 C 232.927 336.126,234.400 334.940,234.400 334.138 C 234.400 333.584,234.295 333.563,233.100 333.876 M215.200 334.400 C 214.408 334.654,214.367 334.720,215.000 334.720 C 215.440 334.720,216.250 334.576,216.800 334.400 C 217.592 334.146,217.633 334.080,217.000 334.080 C 216.560 334.080,215.750 334.224,215.200 334.400 M190.900 334.697 C 192.385 334.774,194.815 334.774,196.300 334.697 C 197.785 334.620,196.570 334.557,193.600 334.557 C 190.630 334.557,189.415 334.620,190.900 334.697 M201.911 334.693 C 202.851 334.778,204.291 334.777,205.111 334.691 C 205.930 334.605,205.160 334.536,203.400 334.537 C 201.640 334.539,200.970 334.609,201.911 334.693 M169.800 335.216 C 171.026 335.512,177.469 335.719,177.167 335.454 C 177.075 335.373,175.110 335.222,172.800 335.117 C 170.490 335.013,169.140 335.057,169.800 335.216 M218.758 335.166 C 219.235 335.468,219.235 335.545,218.758 335.702 C 218.451 335.803,218.560 335.797,219.000 335.688 C 219.440 335.580,221.060 335.365,222.600 335.210 L 225.400 334.929 221.800 334.871 C 219.584 334.835,218.415 334.948,218.758 335.166 M159.400 335.581 C 160.168 335.929,162.310 336.156,161.967 335.853 C 161.875 335.772,161.080 335.596,160.200 335.462 C 159.085 335.293,158.842 335.329,159.400 335.581 M178.200 335.600 C 177.696 335.817,177.622 335.944,178.000 335.944 C 178.330 335.944,178.960 335.789,179.400 335.600 C 179.904 335.383,179.978 335.256,179.600 335.256 C 179.270 335.256,178.640 335.411,178.200 335.600 M189.600 335.600 L 182.600 335.800 186.600 336.118 C 190.824 336.454,196.363 336.383,196.606 335.990 C 196.686 335.861,199.236 335.707,202.274 335.646 C 205.312 335.585,207.885 335.449,207.991 335.343 C 208.184 335.149,202.690 335.226,189.600 335.600 M214.100 336.276 C 214.485 336.376,215.115 336.376,215.500 336.276 C 215.885 336.175,215.570 336.093,214.800 336.093 C 214.030 336.093,213.715 336.175,214.100 336.276 M169.891 336.689 C 170.601 336.777,171.861 336.779,172.691 336.692 C 173.521 336.605,172.940 336.533,171.400 336.531 C 169.860 336.529,169.181 336.600,169.891 336.689 M207.300 336.687 C 207.905 336.778,208.895 336.778,209.500 336.687 C 210.105 336.595,209.610 336.520,208.400 336.520 C 207.190 336.520,206.695 336.595,207.300 336.687 M176.500 337.076 C 176.885 337.176,177.515 337.176,177.900 337.076 C 178.285 336.975,177.970 336.893,177.200 336.893 C 176.430 336.893,176.115 336.975,176.500 337.076 M202.100 337.087 C 202.705 337.178,203.695 337.178,204.300 337.087 C 204.905 336.995,204.410 336.920,203.200 336.920 C 201.990 336.920,201.495 336.995,202.100 337.087 M153.391 338.324 C 153.814 338.747,157.431 339.088,158.197 338.777 C 158.998 338.452,158.998 338.451,158.200 338.393 C 155.256 338.182,153.219 338.153,153.391 338.324 M222.000 338.379 L 221.000 338.678 222.000 338.917 C 222.550 339.049,221.920 339.095,220.600 339.020 C 219.280 338.945,218.426 338.970,218.702 339.076 C 218.979 339.182,219.095 339.447,218.960 339.665 C 218.802 339.921,219.404 339.960,220.657 339.775 C 222.663 339.480,224.601 338.870,223.676 338.825 C 223.388 338.811,223.264 338.620,223.400 338.400 C 223.678 337.951,223.442 337.947,222.000 338.379 M225.400 338.400 C 224.896 338.617,224.822 338.744,225.200 338.744 C 225.530 338.744,226.160 338.589,226.600 338.400 C 227.104 338.183,227.178 338.056,226.800 338.056 C 226.470 338.056,225.840 338.211,225.400 338.400 M161.200 339.182 C 161.662 339.529,161.340 339.586,159.800 339.427 C 158.091 339.252,158.001 339.274,159.184 339.578 C 159.945 339.773,161.655 339.791,162.984 339.617 C 164.658 339.398,164.970 339.284,164.000 339.245 C 163.230 339.214,162.150 339.086,161.600 338.960 C 160.795 338.775,160.717 338.819,161.200 339.182 M215.905 339.483 C 216.402 339.579,217.122 339.575,217.505 339.475 C 217.887 339.375,217.480 339.296,216.600 339.301 C 215.720 339.305,215.407 339.387,215.905 339.483 M162.420 340.142 C 162.890 340.636,170.264 341.209,172.570 340.930 L 175.000 340.636 173.200 340.348 C 172.210 340.189,170.770 340.067,170.000 340.077 L 168.600 340.095 169.800 340.429 C 171.042 340.775,168.387 340.641,164.200 340.146 C 163.100 340.016,162.299 340.014,162.420 340.142 M206.800 340.366 C 205.477 340.613,205.528 340.643,207.727 340.920 C 210.056 341.214,210.800 341.082,210.800 340.376 C 210.800 339.963,208.986 339.959,206.800 340.366 M212.105 340.687 C 212.714 340.779,213.614 340.777,214.105 340.682 C 214.597 340.587,214.100 340.511,213.000 340.514 C 211.900 340.517,211.497 340.595,212.105 340.687 M177.400 341.180 L 172.600 341.400 177.200 341.698 C 186.277 342.287,208.878 341.797,202.400 341.152 C 199.347 340.848,184.287 340.865,177.400 341.180 " stroke="none" fill="#949494" fill-rule="evenodd"></path><path id="path3" d="M144.732 85.224 C 145.511 85.537,145.622 85.791,145.406 86.773 C 145.235 87.552,145.366 88.281,145.794 88.934 C 146.159 89.492,146.269 89.981,146.046 90.060 C 145.793 90.150,145.816 90.808,146.108 91.897 C 146.649 93.911,146.037 99.076,145.030 101.000 C 144.405 102.194,144.408 102.202,145.643 102.570 L 146.884 102.940 145.542 103.575 L 144.200 104.209 144.265 148.112 C 144.353 207.528,145.135 252.455,146.606 282.600 C 146.917 288.980,147.362 298.880,147.593 304.600 C 148.102 317.162,148.192 317.897,149.125 317.107 C 150.690 315.782,155.600 314.614,155.600 315.567 C 155.600 315.769,154.762 316.254,153.738 316.645 C 151.512 317.495,149.600 319.016,149.600 319.938 C 149.600 320.649,152.424 321.791,152.795 321.229 C 153.064 320.822,157.654 319.120,157.878 319.345 C 157.973 319.440,157.037 319.998,155.797 320.584 C 153.335 321.749,153.284 322.477,155.632 322.946 C 157.222 323.264,158.813 321.980,158.017 321.021 C 157.463 320.353,159.076 319.440,160.368 319.689 C 161.446 319.897,161.158 321.722,160.000 322.027 C 158.592 322.397,159.470 322.669,163.800 323.203 C 177.652 324.911,208.000 325.020,208.000 323.362 C 208.000 322.639,208.762 322.642,209.569 323.369 C 210.115 323.862,210.952 323.844,215.800 323.240 C 218.880 322.856,221.653 322.630,221.963 322.738 C 222.813 323.034,218.444 324.343,216.506 324.374 C 215.574 324.388,214.044 324.581,213.106 324.802 C 212.168 325.023,210.050 325.372,208.400 325.578 L 205.400 325.952 208.400 325.810 C 212.907 325.597,219.599 324.463,222.663 323.392 C 225.331 322.460,226.410 321.600,224.912 321.600 C 224.496 321.600,223.332 321.077,222.325 320.438 C 221.317 319.799,220.157 319.175,219.746 319.052 C 219.336 318.928,219.739 318.890,220.643 318.968 C 222.110 319.094,224.063 319.762,226.095 320.834 C 227.029 321.326,229.469 321.298,230.431 320.783 C 231.323 320.306,231.106 319.693,229.409 317.900 C 228.527 316.968,228.477 316.802,229.084 316.813 C 229.962 316.828,231.200 317.724,231.200 318.344 C 231.200 318.595,231.362 318.800,231.559 318.800 C 231.756 318.800,232.024 316.415,232.153 313.500 C 232.283 310.585,232.671 301.720,233.017 293.800 C 233.362 285.880,233.806 275.800,234.002 271.400 C 234.199 267.000,234.546 254.850,234.773 244.400 C 235.000 233.950,235.384 217.480,235.625 207.800 C 235.875 197.788,236.008 171.589,235.932 147.036 L 235.800 103.871 234.400 103.366 C 233.469 103.030,233.268 102.849,233.800 102.824 C 235.483 102.747,235.673 102.266,234.798 100.289 C 233.903 98.265,233.659 94.552,234.177 90.800 C 234.343 89.590,234.511 87.916,234.550 87.079 C 234.588 86.243,234.885 85.382,235.210 85.167 C 235.627 84.890,235.449 84.853,234.600 85.039 C 233.940 85.185,233.229 85.460,233.020 85.652 C 232.811 85.843,232.181 86.014,231.620 86.032 L 230.600 86.063 231.657 86.451 C 232.632 86.808,233.603 89.200,232.773 89.200 C 232.614 89.200,232.485 89.605,232.485 90.100 C 232.486 90.595,232.350 92.570,232.184 94.488 C 231.964 97.042,232.015 98.136,232.374 98.569 C 232.646 98.897,232.748 99.533,232.603 99.992 C 232.415 100.582,232.600 101.034,233.238 101.551 L 234.138 102.279 232.995 102.566 L 231.852 102.852 232.929 103.726 L 234.005 104.600 234.186 155.200 C 234.285 183.030,234.196 212.730,233.986 221.200 C 233.777 229.670,233.425 243.890,233.204 252.800 C 232.983 261.710,232.710 272.870,232.596 277.600 C 232.482 282.330,232.177 292.050,231.919 299.200 C 231.661 306.350,231.439 312.858,231.425 313.662 C 231.411 314.466,231.265 315.040,231.100 314.938 C 230.935 314.836,230.800 315.044,230.800 315.400 C 230.800 316.369,227.043 315.610,226.640 314.561 C 226.476 314.131,225.507 314.003,222.513 314.012 L 218.600 314.024 221.180 315.238 C 222.599 315.906,224.268 316.554,224.888 316.678 C 225.509 316.802,226.114 317.060,226.232 317.252 C 226.350 317.443,226.827 317.600,227.292 317.600 C 228.473 317.600,229.555 318.685,229.310 319.623 C 229.030 320.691,227.482 320.623,226.256 319.487 C 225.328 318.627,223.341 318.089,217.998 317.251 C 217.007 317.096,215.992 316.842,215.742 316.688 C 215.013 316.237,203.231 315.272,195.200 315.005 C 182.740 314.591,170.981 315.362,161.381 317.221 C 159.170 317.650,156.800 318.000,156.114 318.000 C 155.428 318.000,154.796 318.212,154.709 318.472 C 154.540 318.979,153.200 318.647,153.200 318.098 C 153.200 317.729,159.619 314.620,160.130 314.741 C 160.311 314.785,160.332 314.614,160.176 314.362 C 159.902 313.917,155.905 314.020,152.400 314.562 C 149.841 314.957,149.605 314.127,148.993 302.600 C 147.921 282.376,147.552 274.228,147.222 263.400 C 146.605 243.164,146.046 198.444,145.797 149.499 L 145.568 104.398 146.484 104.031 C 146.988 103.830,147.755 103.551,148.189 103.411 C 149.207 103.083,148.299 102.420,146.800 102.397 L 145.800 102.382 146.726 101.669 C 147.878 100.784,148.415 89.642,147.349 88.758 C 145.900 87.555,147.058 86.466,149.470 86.763 C 149.728 86.795,150.054 86.636,150.193 86.411 C 150.344 86.167,149.989 85.998,149.324 85.994 C 148.706 85.991,147.480 85.729,146.600 85.412 C 144.853 84.782,143.221 84.619,144.732 85.224 M141.761 85.758 C 141.643 86.065,141.608 87.010,141.683 87.858 C 141.810 89.287,141.834 89.246,142.010 87.300 C 142.204 85.156,142.141 84.767,141.761 85.758 M237.944 86.100 C 238.123 86.595,238.223 87.720,238.168 88.600 C 238.099 89.715,238.164 89.957,238.384 89.400 C 238.558 88.960,238.656 88.150,238.601 87.600 C 238.547 87.050,238.479 86.285,238.451 85.900 C 238.423 85.515,238.224 85.200,238.010 85.200 C 237.776 85.200,237.750 85.560,237.944 86.100 M142.352 91.687 C 142.537 92.798,142.593 92.855,142.719 92.054 C 142.801 91.533,142.703 90.943,142.501 90.741 C 142.279 90.519,142.221 90.893,142.352 91.687 M237.443 91.433 C 236.846 92.988,237.226 97.417,238.109 99.200 L 239.000 101.000 239.202 164.000 L 239.405 227.000 239.502 164.348 L 239.600 101.697 238.559 99.422 C 237.656 97.449,237.537 96.728,237.662 93.974 C 237.817 90.559,237.810 90.476,237.443 91.433 M142.901 94.600 C 142.905 95.480,142.987 95.793,143.083 95.295 C 143.179 94.798,143.175 94.078,143.075 93.695 C 142.975 93.313,142.896 93.720,142.901 94.600 M142.454 97.067 C 142.425 97.544,142.296 98.264,142.170 98.667 C 141.952 99.361,141.964 99.362,142.396 98.688 C 142.647 98.297,142.775 97.577,142.681 97.088 C 142.509 96.201,142.509 96.201,142.454 97.067 M140.649 101.415 C 140.512 101.773,140.443 120.276,140.496 142.533 L 140.593 183.000 140.796 142.000 C 141.014 98.211,141.022 100.445,140.649 101.415 M140.995 259.000 C 140.995 295.960,141.042 311.021,141.100 292.468 C 141.157 273.916,141.157 243.676,141.100 225.268 C 141.042 206.861,140.995 222.040,140.995 259.000 M238.994 279.200 C 238.994 305.270,239.041 315.935,239.100 302.900 C 239.158 289.865,239.158 268.535,239.100 255.500 C 239.041 242.465,238.994 253.130,238.994 279.200 M226.800 315.600 C 226.800 315.820,227.070 316.000,227.400 316.000 C 227.730 316.000,228.000 316.176,228.000 316.392 C 228.000 316.608,227.505 316.719,226.900 316.638 C 224.415 316.308,223.413 315.200,225.600 315.200 C 226.260 315.200,226.800 315.380,226.800 315.600 M200.337 315.861 C 208.525 316.302,205.800 316.596,192.698 316.686 C 185.824 316.734,177.230 316.850,173.600 316.946 C 166.749 317.126,166.840 317.094,176.200 316.044 C 179.840 315.635,194.122 315.527,200.337 315.861 M192.531 319.462 C 193.573 319.634,193.892 319.822,193.531 320.051 C 192.877 320.466,189.374 320.501,187.550 320.112 L 186.200 319.823 187.600 319.564 C 189.586 319.197,190.778 319.172,192.531 319.462 M146.220 321.555 C 146.429 321.750,147.050 322.030,147.600 322.176 C 148.561 322.431,148.570 322.417,147.824 321.821 C 147.005 321.167,145.545 320.925,146.220 321.555 M160.400 324.008 C 163.887 324.850,168.238 325.387,167.000 324.821 C 166.560 324.621,165.570 324.441,164.800 324.423 C 164.030 324.405,162.410 324.125,161.200 323.800 C 159.990 323.475,158.640 323.226,158.200 323.246 C 157.760 323.267,158.750 323.609,160.400 324.008 M144.006 325.224 C 144.012 325.807,147.578 328.005,148.500 327.994 C 149.027 327.988,147.688 327.134,146.000 326.399 C 145.450 326.160,144.775 325.668,144.500 325.306 C 144.103 324.783,144.001 324.766,144.006 325.224 M145.600 325.166 C 145.930 325.354,146.830 325.617,147.600 325.751 L 149.000 325.993 147.600 325.427 C 145.974 324.770,144.587 324.589,145.600 325.166 M233.600 325.230 C 232.689 325.549,232.715 325.570,233.900 325.460 C 235.955 325.268,235.428 325.823,232.500 326.932 C 231.015 327.495,230.160 327.955,230.600 327.955 C 231.670 327.953,235.719 325.930,235.913 325.300 C 236.087 324.735,235.100 324.705,233.600 325.230 M170.200 325.600 C 170.860 325.768,172.120 325.906,173.000 325.907 L 174.600 325.908 173.000 325.577 C 172.120 325.395,170.860 325.257,170.200 325.270 L 169.000 325.295 170.200 325.600 M177.500 326.289 C 178.215 326.378,179.385 326.378,180.100 326.289 C 180.815 326.201,180.230 326.128,178.800 326.128 C 177.370 326.128,176.785 326.201,177.500 326.289 M200.900 326.287 C 201.505 326.378,202.495 326.378,203.100 326.287 C 203.705 326.195,203.210 326.120,202.000 326.120 C 200.790 326.120,200.295 326.195,200.900 326.287 M185.900 326.699 C 188.375 326.769,192.425 326.769,194.900 326.699 C 197.375 326.628,195.350 326.571,190.400 326.571 C 185.450 326.571,183.425 326.628,185.900 326.699 M153.000 327.243 C 153.880 327.437,155.230 327.688,156.000 327.802 L 157.400 328.010 156.000 327.435 C 155.230 327.119,153.880 326.868,153.000 326.876 L 151.400 326.892 153.000 327.243 M226.045 327.232 C 225.079 327.422,224.186 327.681,224.060 327.807 C 223.726 328.141,227.290 327.554,228.000 327.159 C 228.713 326.761,228.380 326.774,226.045 327.232 M142.029 328.500 C 142.887 330.014,143.200 330.314,143.200 329.622 C 143.200 329.415,142.745 328.740,142.189 328.122 L 141.179 327.000 142.029 328.500 M237.675 328.384 C 236.694 329.711,236.478 330.650,237.442 329.400 C 238.178 328.445,238.884 327.200,238.689 327.200 C 238.613 327.200,238.157 327.733,237.675 328.384 M150.700 328.282 C 151.195 328.378,152.005 328.378,152.500 328.282 C 152.995 328.187,152.590 328.109,151.600 328.109 C 150.610 328.109,150.205 328.187,150.700 328.282 M157.600 328.376 C 157.600 328.596,156.696 328.691,155.500 328.598 L 153.400 328.433 155.200 328.795 C 156.679 329.092,161.527 328.938,161.118 328.607 C 160.690 328.260,157.600 328.057,157.600 328.376 M220.600 328.363 L 219.400 328.631 220.400 328.910 C 222.331 329.449,223.742 329.284,223.057 328.600 C 222.415 327.957,222.415 327.957,220.600 328.363 M224.705 328.683 C 225.202 328.779,225.922 328.775,226.305 328.675 C 226.687 328.575,226.280 328.496,225.400 328.501 C 224.520 328.505,224.207 328.587,224.705 328.683 M162.900 329.076 C 163.285 329.176,163.915 329.176,164.300 329.076 C 164.685 328.975,164.370 328.893,163.600 328.893 C 162.830 328.893,162.515 328.975,162.900 329.076 M211.400 329.441 L 209.000 329.980 212.974 329.796 C 215.160 329.695,217.131 329.429,217.354 329.206 C 217.929 328.631,214.386 328.771,211.400 329.441 M230.808 329.195 C 230.486 329.394,230.350 329.683,230.505 329.839 C 230.661 329.994,230.475 330.358,230.094 330.648 C 229.465 331.125,229.500 331.176,230.473 331.187 C 231.219 331.196,231.627 330.944,231.813 330.360 C 232.140 329.329,231.601 328.705,230.808 329.195 M143.200 330.958 C 143.200 331.352,142.846 332.123,142.414 332.673 C 139.496 336.383,150.634 340.233,169.400 342.002 C 183.766 343.357,214.150 342.458,222.600 340.430 C 223.480 340.218,224.960 339.944,225.888 339.820 C 233.990 338.737,238.338 335.675,237.066 331.948 L 236.469 330.200 236.050 331.284 C 235.720 332.139,235.162 332.505,233.411 333.014 C 232.048 333.410,231.292 333.825,231.455 334.088 C 231.631 334.374,231.367 334.428,230.658 334.250 C 230.020 334.090,229.238 334.200,228.698 334.525 C 228.173 334.842,226.399 335.103,224.426 335.155 C 222.570 335.204,220.770 335.404,220.426 335.601 C 220.027 335.829,220.814 335.913,222.600 335.832 C 224.140 335.763,224.545 335.782,223.500 335.874 C 222.455 335.966,221.600 336.203,221.600 336.400 C 221.600 336.597,220.745 336.834,219.700 336.928 C 218.655 337.021,219.242 337.042,221.005 336.975 C 222.768 336.907,224.724 336.657,225.351 336.419 C 226.316 336.052,226.455 336.079,226.258 336.593 C 225.963 337.361,226.233 337.354,228.796 336.526 C 230.676 335.918,230.813 335.799,230.166 335.326 C 229.507 334.844,229.537 334.800,230.529 334.800 C 231.549 334.800,233.145 334.138,233.611 333.521 C 234.102 332.870,235.004 333.971,234.568 334.689 C 230.588 341.234,183.260 344.572,160.200 339.934 C 158.000 339.492,155.300 338.952,154.200 338.734 C 153.100 338.516,152.029 338.172,151.820 337.969 C 151.611 337.766,151.071 337.596,150.620 337.591 C 148.163 337.565,144.209 334.622,145.430 333.728 C 146.168 333.189,148.198 334.156,147.773 334.844 C 147.652 335.040,147.833 335.200,148.176 335.200 C 148.519 335.200,148.800 335.380,148.800 335.600 C 148.800 335.820,149.124 336.000,149.520 336.000 C 149.916 336.000,150.430 336.190,150.661 336.421 C 150.907 336.667,153.559 336.889,157.041 336.955 C 160.319 337.018,162.055 336.999,160.900 336.913 C 158.957 336.770,157.905 336.052,159.500 335.959 C 160.863 335.879,157.362 335.222,154.791 335.075 C 153.356 334.993,151.774 334.707,151.276 334.441 C 150.777 334.174,149.994 334.075,149.535 334.221 C 148.994 334.392,148.792 334.336,148.962 334.062 C 149.119 333.807,148.538 333.456,147.512 333.185 C 146.570 332.936,145.215 332.172,144.500 331.488 C 143.449 330.481,143.200 330.380,143.200 330.958 M151.800 332.048 C 154.559 332.721,157.340 333.142,159.000 333.137 C 161.519 333.131,157.027 332.154,153.200 331.876 C 150.731 331.697,150.483 331.727,151.800 332.048 M224.600 332.400 C 224.304 332.880,225.484 332.880,226.600 332.400 C 227.274 332.110,227.200 332.052,226.124 332.028 C 225.422 332.013,224.736 332.180,224.600 332.400 M221.305 333.087 C 221.914 333.179,222.814 333.177,223.305 333.082 C 223.797 332.987,223.300 332.911,222.200 332.914 C 221.100 332.917,220.697 332.995,221.305 333.087 M161.600 333.519 C 161.600 333.729,162.635 334.016,163.900 334.156 C 165.165 334.296,167.820 334.584,169.800 334.797 C 173.461 335.190,207.160 335.374,207.531 335.003 C 207.642 334.891,202.708 334.755,196.567 334.700 C 190.425 334.645,182.790 334.566,179.600 334.524 C 173.553 334.445,164.949 333.872,162.831 333.407 C 162.126 333.252,161.600 333.300,161.600 333.519 M215.400 333.618 C 214.300 333.790,212.500 333.948,211.400 333.971 C 210.300 333.994,209.130 334.202,208.800 334.434 C 208.367 334.738,209.037 334.794,211.200 334.632 C 216.507 334.236,218.800 333.909,218.800 333.550 C 218.800 333.158,218.289 333.168,215.400 333.618 M157.500 335.876 C 157.115 335.976,156.485 335.976,156.100 335.876 C 155.715 335.775,156.030 335.693,156.800 335.693 C 157.570 335.693,157.885 335.775,157.500 335.876 M162.200 336.400 C 162.860 336.568,164.210 336.704,165.200 336.703 L 167.000 336.700 165.200 336.380 C 164.210 336.203,162.860 336.067,162.200 336.077 L 161.000 336.095 162.200 336.400 M214.800 336.400 L 213.000 336.680 215.000 336.700 C 216.100 336.711,217.450 336.576,218.000 336.400 C 219.325 335.976,217.530 335.976,214.800 336.400 M170.225 337.270 C 171.561 337.627,206.885 337.634,209.200 337.277 C 210.190 337.125,201.598 337.000,190.107 337.000 C 178.616 337.000,169.669 337.122,170.225 337.270 M154.800 337.360 C 154.800 337.591,160.248 338.726,162.600 338.986 C 164.007 339.141,164.363 339.095,163.800 338.831 C 163.360 338.625,162.370 338.441,161.600 338.423 C 160.830 338.405,159.210 338.125,158.000 337.800 C 155.774 337.203,154.800 337.069,154.800 337.360 M221.600 337.839 C 220.170 338.134,218.307 338.483,217.459 338.614 C 216.612 338.745,216.019 338.953,216.143 339.076 C 216.393 339.326,223.745 338.078,225.000 337.573 L 225.800 337.251 225.000 337.276 C 224.560 337.290,223.030 337.543,221.600 337.839 M166.977 339.218 C 165.834 339.429,165.847 339.444,167.400 339.713 C 169.742 340.120,171.267 340.058,170.200 339.600 C 169.657 339.367,170.396 339.247,172.500 339.228 C 175.602 339.200,177.043 339.946,174.100 340.056 C 172.831 340.104,172.939 340.160,174.800 340.417 C 177.741 340.823,203.719 340.826,206.000 340.420 L 207.800 340.100 206.276 340.050 C 203.453 339.957,205.182 339.199,208.124 339.240 C 210.174 339.268,210.713 339.372,210.000 339.600 C 208.631 340.039,211.677 340.039,213.400 339.600 C 214.574 339.301,214.565 339.293,213.000 339.204 C 209.462 339.002,168.073 339.015,166.977 339.218 M200.000 340.121 C 201.870 340.184,197.460 340.239,190.200 340.243 C 182.940 340.247,178.530 340.149,180.400 340.025 C 183.579 339.815,192.172 339.856,200.000 340.121 " stroke="none" fill="#b1b2b2" fill-rule="evenodd"></path><path id="path4" d="M233.701 94.600 C 233.705 95.480,233.787 95.793,233.883 95.295 C 233.979 94.798,233.975 94.078,233.875 93.695 C 233.775 93.313,233.696 93.720,233.701 94.600 M236.157 109.600 C 236.157 112.570,236.220 113.785,236.297 112.300 C 236.374 110.815,236.374 108.385,236.297 106.900 C 236.220 105.415,236.157 106.630,236.157 109.600 M144.182 184.400 C 144.182 192.870,144.235 196.335,144.299 192.100 C 144.364 187.865,144.364 180.935,144.299 176.700 C 144.235 172.465,144.182 175.930,144.182 184.400 M140.974 182.000 C 140.974 187.610,141.030 189.905,141.099 187.100 C 141.168 184.295,141.168 179.705,141.099 176.900 C 141.030 174.095,140.974 176.390,140.974 182.000 M235.750 206.200 C 235.751 208.620,235.816 209.558,235.896 208.285 C 235.976 207.012,235.975 205.032,235.894 203.885 C 235.814 202.738,235.749 203.780,235.750 206.200 M144.548 209.600 C 144.548 211.910,144.614 212.855,144.695 211.700 C 144.776 210.545,144.776 208.655,144.695 207.500 C 144.614 206.345,144.548 207.290,144.548 209.600 M238.928 212.000 C 238.928 213.430,239.001 214.015,239.089 213.300 C 239.178 212.585,239.178 211.415,239.089 210.700 C 239.001 209.985,238.928 210.570,238.928 212.000 M235.348 217.600 C 235.348 219.910,235.414 220.855,235.495 219.700 C 235.576 218.545,235.576 216.655,235.495 215.500 C 235.414 214.345,235.348 215.290,235.348 217.600 M238.969 224.000 C 238.969 228.510,239.027 230.355,239.098 228.100 C 239.170 225.845,239.170 222.155,239.098 219.900 C 239.027 217.645,238.969 219.490,238.969 224.000 M144.948 233.600 C 144.948 235.910,145.014 236.855,145.095 235.700 C 145.176 234.545,145.176 232.655,145.095 231.500 C 145.014 230.345,144.948 231.290,144.948 233.600 M234.937 239.800 C 234.939 241.560,235.009 242.230,235.093 241.289 C 235.178 240.349,235.177 238.909,235.091 238.089 C 235.005 237.270,234.936 238.040,234.937 239.800 M145.340 253.600 C 145.340 255.470,145.409 256.235,145.493 255.300 C 145.577 254.365,145.577 252.835,145.493 251.900 C 145.409 250.965,145.340 251.730,145.340 253.600 M234.546 257.400 C 234.547 259.600,234.614 260.449,234.695 259.287 C 234.776 258.124,234.776 256.324,234.693 255.287 C 234.611 254.249,234.545 255.200,234.546 257.400 M145.731 266.600 C 145.733 268.140,145.805 268.721,145.892 267.891 C 145.979 267.061,145.977 265.801,145.889 265.091 C 145.800 264.381,145.729 265.060,145.731 266.600 M234.101 268.200 C 234.105 269.080,234.187 269.393,234.283 268.895 C 234.379 268.398,234.375 267.678,234.275 267.295 C 234.175 266.913,234.096 267.320,234.101 268.200 M146.128 277.200 C 146.128 278.630,146.201 279.215,146.289 278.500 C 146.378 277.785,146.378 276.615,146.289 275.900 C 146.201 275.185,146.128 275.770,146.128 277.200 M233.728 279.200 C 233.728 280.630,233.801 281.215,233.889 280.500 C 233.978 279.785,233.978 278.615,233.889 277.900 C 233.801 277.185,233.728 277.770,233.728 279.200 M146.501 283.800 C 146.505 284.680,146.587 284.993,146.683 284.495 C 146.779 283.998,146.775 283.278,146.675 282.895 C 146.575 282.513,146.496 282.920,146.501 283.800 M233.314 285.800 C 233.317 286.900,233.395 287.303,233.487 286.695 C 233.579 286.086,233.577 285.186,233.482 284.695 C 233.387 284.203,233.311 284.700,233.314 285.800 M146.931 293.400 C 146.933 294.940,147.005 295.521,147.092 294.691 C 147.179 293.861,147.177 292.601,147.089 291.891 C 147.000 291.181,146.929 291.860,146.931 293.400 M232.909 294.800 C 232.909 295.790,232.987 296.195,233.082 295.700 C 233.178 295.205,233.178 294.395,233.082 293.900 C 232.987 293.405,232.909 293.810,232.909 294.800 M147.314 301.400 C 147.317 302.500,147.395 302.903,147.487 302.295 C 147.579 301.686,147.577 300.786,147.482 300.295 C 147.387 299.803,147.311 300.300,147.314 301.400 M232.534 304.400 C 232.534 306.050,232.605 306.725,232.691 305.900 C 232.778 305.075,232.778 303.725,232.691 302.900 C 232.605 302.075,232.534 302.750,232.534 304.400 M147.701 310.600 C 147.705 311.480,147.787 311.793,147.883 311.295 C 147.979 310.798,147.975 310.078,147.875 309.695 C 147.775 309.313,147.696 309.720,147.701 310.600 M232.114 315.400 C 232.117 316.500,232.195 316.903,232.287 316.295 C 232.379 315.686,232.377 314.786,232.282 314.295 C 232.187 313.803,232.111 314.300,232.114 315.400 M178.992 315.988 C 179.065 316.104,177.836 316.232,176.262 316.271 C 174.688 316.311,171.960 316.517,170.200 316.731 C 167.470 317.062,167.969 317.094,173.600 316.946 C 177.230 316.850,185.824 316.734,192.698 316.686 C 199.572 316.639,205.197 316.465,205.198 316.300 C 205.200 315.980,204.447 315.959,188.931 315.847 C 183.392 315.808,178.920 315.871,178.992 315.988 M148.046 317.567 C 148.021 318.318,148.045 318.858,148.100 318.767 C 148.155 318.675,148.650 318.061,149.200 317.403 C 150.010 316.434,150.035 316.344,149.335 316.933 C 148.499 317.636,148.464 317.636,148.282 316.930 C 148.178 316.529,148.072 316.815,148.046 317.567 M230.245 317.673 C 230.439 317.987,230.305 318.049,229.829 317.866 C 229.318 317.670,229.420 317.945,230.202 318.875 C 231.162 320.016,231.209 320.204,230.639 320.621 C 229.811 321.227,229.814 321.757,230.645 321.438 C 231.064 321.277,231.223 321.367,231.100 321.695 C 230.996 321.973,231.053 322.560,231.227 323.000 C 231.496 323.678,231.552 323.618,231.599 322.600 C 231.629 321.940,231.732 320.796,231.828 320.057 C 231.971 318.961,231.887 318.758,231.375 318.954 C 230.902 319.136,230.806 319.010,230.986 318.445 C 231.138 317.966,230.995 317.607,230.591 317.452 C 230.175 317.292,230.057 317.368,230.245 317.673 M155.200 320.080 C 153.990 320.540,152.888 321.090,152.751 321.300 C 152.596 321.539,152.191 321.516,151.677 321.241 C 151.224 320.999,150.616 320.809,150.326 320.821 C 150.037 320.832,150.520 321.115,151.400 321.450 C 152.280 321.785,153.360 322.255,153.800 322.494 C 154.506 322.877,154.538 322.853,154.072 322.289 C 153.609 321.729,153.819 321.520,155.772 320.596 C 159.144 319.001,158.814 318.703,155.200 320.080 M187.600 319.564 L 186.200 319.823 187.550 320.112 C 189.374 320.501,192.877 320.466,193.531 320.051 C 194.595 319.377,190.452 319.037,187.600 319.564 M225.405 321.100 C 225.478 321.485,225.553 321.918,225.569 322.062 C 225.586 322.207,226.026 322.124,226.547 321.878 L 227.495 321.431 226.502 320.915 C 225.245 320.263,225.245 320.263,225.405 321.100 M179.700 326.676 C 180.085 326.776,180.715 326.776,181.100 326.676 C 181.485 326.575,181.170 326.493,180.400 326.493 C 179.630 326.493,179.315 326.575,179.700 326.676 M230.971 328.507 C 229.885 329.677,229.445 330.834,230.195 330.547 C 230.500 330.430,230.652 330.079,230.532 329.767 C 230.342 329.271,230.801 329.020,231.675 329.144 C 231.825 329.166,231.922 328.827,231.889 328.392 C 231.857 327.956,231.823 327.603,231.815 327.607 C 231.807 327.611,231.427 328.016,230.971 328.507 M163.600 329.247 C 162.205 329.494,162.206 329.495,164.000 329.605 C 167.445 329.817,168.756 329.798,168.479 329.541 C 168.051 329.144,165.167 328.970,163.600 329.247 M146.400 330.326 C 146.400 330.792,149.608 332.442,150.021 332.187 C 150.699 331.768,149.953 330.920,149.056 331.091 C 148.537 331.191,147.927 330.994,147.627 330.632 C 147.066 329.956,146.400 329.790,146.400 330.326 M228.400 331.357 C 228.400 331.746,229.527 331.892,230.036 331.569 C 230.447 331.309,230.301 331.211,229.500 331.206 C 228.895 331.203,228.400 331.271,228.400 331.357 M159.307 332.687 C 159.916 332.779,160.323 333.002,160.211 333.182 C 160.100 333.362,160.367 333.603,160.804 333.717 C 161.242 333.831,161.600 333.798,161.600 333.643 C 161.600 332.974,160.549 332.404,159.420 332.460 C 158.203 332.520,158.203 332.520,159.307 332.687 M219.500 333.103 C 219.115 333.189,218.800 333.425,218.800 333.629 C 218.800 334.098,219.234 334.093,219.988 333.616 C 220.707 333.161,220.450 332.892,219.500 333.103 M146.683 333.927 C 147.169 334.352,147.439 334.842,147.283 335.014 C 147.127 335.187,147.225 335.199,147.500 335.041 C 148.184 334.647,148.154 334.586,146.900 333.822 L 145.800 333.153 146.683 333.927 M145.041 333.933 C 144.472 334.854,148.658 337.571,150.676 337.591 C 151.158 337.596,151.664 337.780,151.800 338.000 C 151.936 338.220,152.352 338.399,152.724 338.398 C 153.655 338.394,151.624 337.357,149.978 336.995 C 148.261 336.618,146.000 335.248,146.000 334.584 C 146.000 333.918,145.331 333.464,145.041 333.933 M173.376 334.170 C 173.860 334.563,174.840 334.779,175.976 334.744 L 177.800 334.687 175.800 334.437 C 174.700 334.299,173.530 334.041,173.200 333.863 C 172.870 333.686,172.949 333.824,173.376 334.170 M234.432 333.969 C 234.414 334.281,234.092 334.911,233.715 335.369 C 233.069 336.153,233.083 336.151,233.962 335.342 C 234.475 334.870,234.797 334.240,234.679 333.942 C 234.504 333.503,234.457 333.508,234.432 333.969 M207.400 334.363 L 206.200 334.631 207.200 334.910 C 208.550 335.287,208.890 335.269,208.621 334.834 C 208.497 334.633,208.621 334.377,208.898 334.266 C 209.581 333.990,208.858 334.037,207.400 334.363 M186.305 334.683 C 186.802 334.779,187.522 334.775,187.905 334.675 C 188.287 334.575,187.880 334.496,187.000 334.501 C 186.120 334.505,185.807 334.587,186.305 334.683 M181.300 335.491 C 182.125 335.578,183.475 335.578,184.300 335.491 C 185.125 335.405,184.450 335.334,182.800 335.334 C 181.150 335.334,180.475 335.405,181.300 335.491 M189.317 335.497 C 190.811 335.574,193.151 335.574,194.517 335.496 C 195.882 335.418,194.660 335.355,191.800 335.355 C 188.940 335.356,187.822 335.420,189.317 335.497 M227.600 335.755 C 227.600 335.840,228.130 335.987,228.779 336.082 C 229.427 336.177,229.867 336.108,229.755 335.928 C 229.557 335.607,227.600 335.450,227.600 335.755 M211.105 336.683 C 211.602 336.779,212.322 336.775,212.705 336.675 C 213.087 336.575,212.680 336.496,211.800 336.501 C 210.920 336.505,210.607 336.587,211.105 336.683 M205.705 341.487 C 206.314 341.579,207.214 341.577,207.705 341.482 C 208.197 341.387,207.700 341.311,206.600 341.314 C 205.500 341.317,205.097 341.395,205.705 341.487 M198.705 341.883 C 199.202 341.979,199.922 341.975,200.305 341.875 C 200.687 341.775,200.280 341.696,199.400 341.701 C 198.520 341.705,198.207 341.787,198.705 341.883 " stroke="none" fill="#9c9c9c" fill-rule="evenodd"></path></g></svg>