<svg width="402" height="874" viewBox="0 0 402 874" fill="none" xmlns="http://www.w3.org/2000/svg">
<g clip-path="url(#clip0_2_2)">
<path d="M402 0H0V874H402V0Z" fill="#1F004A"/>
<g opacity="0.1">
<path d="M402 2.90366H0V37.9676H402V2.90366Z" fill="#FF0030"/>
<path d="M402 2.90366H0V37.9676H402V2.90366Z" fill="url(#paint0_linear_2_2)"/>
</g>
<g opacity="0.1">
<path d="M402 63.0132H0V95.2943H402V63.0132Z" fill="#FF0030"/>
<path d="M402 63.0132H0V95.2943H402V63.0132Z" fill="url(#paint1_linear_2_2)"/>
</g>
<g opacity="0.1">
<path d="M402 120.34H0V149.838H402V120.34Z" fill="#FF0030"/>
<path d="M402 120.34H0V149.838H402V120.34Z" fill="url(#paint2_linear_2_2)"/>
</g>
<g opacity="0.1">
<path d="M402 174.884H0V201.599H402V174.884Z" fill="#FF0030"/>
<path d="M402 174.884H0V201.599H402V174.884Z" fill="url(#paint3_linear_2_2)"/>
</g>
<g opacity="0.1">
<path d="M402 226.645H0V250.577H402V226.645Z" fill="#FF0030"/>
<path d="M402 226.645H0V250.577H402V226.645Z" fill="url(#paint4_linear_2_2)"/>
</g>
<g opacity="0.1">
<path d="M402 272.84H0V293.99H402V272.84Z" fill="#FF0030"/>
<path d="M402 272.84H0V293.99H402V272.84Z" fill="url(#paint5_linear_2_2)"/>
</g>
<g opacity="0.1">
<path d="M402 321.818H0V340.185H402V321.818Z" fill="#FF0030"/>
<path d="M402 321.818H0V340.185H402V321.818Z" fill="url(#paint6_linear_2_2)"/>
</g>
<g opacity="0.1">
<path d="M402 365.231H0V380.815H402V365.231Z" fill="#FF0030"/>
<path d="M402 365.231H0V380.815H402V365.231Z" fill="url(#paint7_linear_2_2)"/>
</g>
<g opacity="0.1">
<path d="M402 405.861H0V418.662H402V405.861Z" fill="#FF0030"/>
<path d="M402 405.861H0V418.662H402V405.861Z" fill="url(#paint8_linear_2_2)"/>
</g>
<g opacity="0.1">
<path d="M402 443.707H0V453.725H402V443.707Z" fill="#FF0030"/>
<path d="M402 443.707H0V453.725H402V443.707Z" fill="url(#paint9_linear_2_2)"/>
</g>
<g opacity="0.1">
<path d="M402 478.771H0V486.285H402V478.771Z" fill="#FF0030"/>
<path d="M402 478.771H0V486.285H402V478.771Z" fill="url(#paint10_linear_2_2)"/>
</g>
<g opacity="0.1">
<path d="M402 511.33H0V516.061H402V511.33Z" fill="#FF0030"/>
<path d="M402 511.33H0V516.061H402V511.33Z" fill="url(#paint11_linear_2_2)"/>
</g>
<g opacity="0.1">
<path d="M402 541.107H0V543.055H402V541.107Z" fill="#FF0030"/>
<path d="M402 541.107H0V543.055H402V541.107Z" fill="url(#paint12_linear_2_2)"/>
</g>
<path d="M126.268 547.217H275.655C276.422 542.214 277.112 536.932 277.802 531.65H124.121C124.811 536.932 125.501 542.214 126.268 547.217ZM160.931 673.421H240.916C242.066 671.197 243.293 668.695 244.443 666.193H157.48C158.63 668.695 159.781 671.197 160.931 673.421ZM138.615 610.319H263.385C264.305 606.705 265.226 602.814 266.146 598.922H135.854C136.774 602.814 137.618 606.705 138.615 610.319ZM200.962 97.1653C164.842 97.1653 134.014 179.17 121.897 294.81H280.026C267.91 179.17 237.081 97.1653 200.962 97.1653ZM147.894 642.009H254.106C255.103 638.951 256.176 635.893 257.173 632.558H144.827C145.824 635.893 146.821 638.951 147.894 642.009ZM285.471 397.107H116.452C116.452 399.331 116.452 401.277 116.452 403.501C116.452 409.338 116.529 415.176 116.606 421.014H285.394C285.471 415.176 285.548 409.338 285.548 403.501C285.471 401.277 285.471 399.331 285.471 397.107ZM131.636 578.907H270.364C271.207 574.459 272.051 570.012 272.818 565.286H129.182C129.949 570.012 130.793 574.459 131.636 578.907ZM122.281 515.805H279.643C280.256 509.968 280.87 504.13 281.407 498.015H120.517C121.054 503.852 121.667 509.968 122.281 515.805ZM200.962 709.836C208.4 709.836 215.609 706.223 222.434 699.829H179.489C186.314 706.501 193.523 709.836 200.962 709.836ZM283.017 329.836H118.906C118.293 339.009 117.756 348.461 117.373 357.912H284.551C284.167 348.183 283.63 339.009 283.017 329.836ZM280.18 296.2H121.744C120.747 305.929 119.827 316.215 119.136 326.222H282.787C282.02 315.937 281.176 305.929 280.18 296.2ZM284.781 363.472H117.143C116.836 372.089 116.606 380.706 116.529 389.324H285.394C285.318 380.706 285.088 372.089 284.781 363.472ZM119.366 484.115H282.557C283.017 477.722 283.477 471.05 283.861 464.379H118.063C118.446 471.05 118.906 477.722 119.366 484.115ZM117.526 452.426H284.474C284.781 445.198 285.011 437.971 285.241 430.743H116.759C116.912 437.971 117.219 445.476 117.526 452.426Z" fill="url(#paint13_linear_2_2)"/>
<path d="M181.813 732.289C181.813 732.289 181.889 732.011 182.118 731.176C182.348 730.619 182.654 729.506 183.036 728.115C183.8 725.61 184.87 721.714 186.246 716.705C187.622 711.696 189.151 705.574 190.909 698.338C192.668 691.103 194.579 682.754 196.643 673.571C198.63 664.109 200.771 654.091 202.911 642.959C205.052 631.828 207.192 619.862 209.332 607.339C210.403 600.938 211.473 594.538 212.467 587.859C213.537 581.18 214.454 574.501 215.448 567.544C216.442 560.587 217.359 553.63 218.276 546.394C219.194 539.159 220.034 531.924 220.875 524.688C222.481 510.217 224.086 495.468 225.385 480.719C226.073 473.484 226.685 465.97 227.22 458.735C227.526 455.117 227.755 451.499 228.061 447.882C228.29 444.264 228.52 440.646 228.825 437.028C229.055 433.411 229.284 429.793 229.513 426.454C229.743 422.836 229.896 419.496 230.125 415.879C230.507 408.922 230.889 402.243 231.119 395.286C231.425 388.607 231.73 382.206 231.883 375.806C232.113 369.405 232.265 363.283 232.418 357.439C232.571 351.595 232.648 346.029 232.801 340.464C232.877 335.176 233.03 330.167 233.03 325.158C233.03 315.696 233.183 307.348 233.106 300.39C233.03 286.754 232.953 278.684 232.953 278.684L230.584 278.962C230.584 278.962 230.584 286.754 230.584 300.112C230.584 306.791 230.431 315.14 230.354 324.323C230.354 329.054 230.201 334.063 230.049 339.35C229.896 344.638 229.819 350.203 229.59 355.769C229.361 361.613 229.131 367.457 228.902 373.579C228.673 379.702 228.29 386.102 227.985 392.503C227.679 398.903 227.22 405.582 226.838 412.539C226.609 415.879 226.456 419.496 226.226 422.836C225.997 426.175 225.691 429.793 225.462 433.132C225.233 436.75 225.003 440.09 224.697 443.707C224.392 447.325 224.086 450.664 223.78 454.282C223.245 461.518 222.557 468.475 221.869 475.71C220.493 489.903 218.888 504.373 217.206 518.288C216.365 525.245 215.448 532.202 214.531 539.159C213.537 545.838 212.696 552.795 211.626 559.474C210.632 566.153 209.638 572.832 208.568 578.954C207.574 585.354 206.504 591.477 205.434 597.599C203.293 609.843 201.153 621.253 199.012 631.828C196.872 642.403 194.732 652.143 192.744 661.048C190.68 669.953 188.769 677.745 187.087 684.702C185.329 691.659 183.8 697.225 182.501 701.956C181.201 706.687 180.131 710.026 179.443 712.531C178.755 714.757 178.373 715.87 178.373 715.87L181.813 732.289Z" fill="#1F004A"/>
<path d="M231.272 280.076C219.576 306.513 213.69 341.02 218.735 385.824C218.735 385.824 218.811 371.075 219.346 362.448C219.346 362.448 220.034 374.136 222.175 375.806C222.175 375.806 220.187 363.561 221.028 354.099C221.028 354.099 221.028 363.005 222.404 366.066C222.404 366.066 220.952 349.925 222.328 340.742C222.328 340.742 222.328 348.812 223.551 354.656C223.551 354.656 223.322 337.959 223.857 332.393C223.857 332.393 224.162 341.577 225.309 346.308C225.309 346.308 224.468 329.054 224.545 324.88C224.545 324.88 225.156 336.568 226.456 340.464C226.456 340.464 225.156 321.262 226.303 315.418C226.303 315.418 225.844 324.88 226.914 329.889C226.914 329.889 226.914 310.13 228.29 305.4C228.29 305.4 227.985 314.305 229.055 318.757C229.055 318.757 227.679 291.207 231.501 283.137L231.272 280.076Z" fill="#1F004A"/>
<path d="M231.807 278.962C213.843 270.614 200.006 288.424 194.961 349.369C194.961 349.369 198.401 334.62 200.924 327.384C200.924 327.384 198.936 341.577 200.847 349.647C200.847 349.647 201.612 331.002 204.669 324.045C204.669 324.045 202.682 333.228 203.293 340.464C203.293 340.464 205.51 319.592 208.95 314.305C208.95 314.305 207.039 322.375 207.039 332.115C207.039 332.115 210.632 314.305 212.39 310.13C212.39 310.13 210.555 320.427 210.785 328.497C210.785 328.497 213.843 308.461 214.836 304.286C214.836 304.286 212.772 317.922 213.307 325.714C213.307 325.714 216.365 302.06 218.888 299.556C218.888 299.556 216.212 307.904 216.289 316.253C216.289 316.253 220.722 295.938 223.245 295.381C223.245 295.381 220.952 303.452 220.952 311.244C220.952 311.244 225.844 278.962 231.501 282.302L231.807 278.962Z" fill="#1F004A"/>
<path d="M232.265 282.302C220.722 231.654 207.192 210.226 192.133 242.229C192.133 242.229 197.407 240.003 200.618 240.837C200.618 240.837 196.49 246.125 196.413 256.7C196.413 256.7 200.465 245.012 203.981 247.516C203.981 247.516 200.847 249.186 199.93 256.143C199.93 256.143 205.434 246.403 208.95 251.134C208.95 251.134 206.045 252.525 204.211 259.483C204.211 259.483 210.173 255.308 212.237 256.7C212.237 256.7 209.027 259.761 207.574 266.161C207.574 266.161 213.537 258.926 215.066 258.648C215.066 258.648 211.014 263.657 209.867 270.614C209.867 270.614 216.518 260.874 218.811 265.327C218.811 265.327 215.295 265.048 213.766 270.892C213.766 270.892 220.799 267.275 222.786 272.84C222.786 272.84 219.576 273.119 218.123 278.684C218.123 278.684 227.679 267.275 231.272 283.693L232.265 282.302Z" fill="#1F004A"/>
<path d="M232.036 286.476C232.342 220.244 225.385 170.431 206.963 155.404C206.963 155.404 211.626 167.092 214.072 175.997C214.072 175.997 209.715 169.596 207.574 176.832C207.574 176.832 213.078 178.502 215.524 189.355C215.524 189.355 212.619 182.398 210.555 185.18C210.555 185.18 216.9 192.138 218.888 204.382C218.888 204.382 216.289 197.982 213.46 198.26C213.46 198.26 219.117 210.504 220.57 216.627C220.57 216.627 217.359 210.504 214.989 211.617C214.989 211.617 221.258 221.636 222.557 225.253C222.557 225.253 218.276 218.296 216.059 220.801C216.059 220.801 223.322 230.541 224.392 239.724C224.392 239.724 221.64 230.541 219.194 231.097C219.194 231.097 225.615 246.403 226.15 255.308C226.15 255.308 223.474 247.238 221.181 247.795C221.181 247.795 231.195 263.935 230.966 285.085L232.036 286.476Z" fill="#1F004A"/>
<path d="M230.889 280.91C235.247 223.584 244.42 182.676 260.932 174.884C260.932 174.884 256.192 183.789 253.517 190.468C253.517 190.468 257.645 186.294 258.868 192.972C258.868 192.972 254.128 192.972 251.376 201.599C251.376 201.599 254.281 196.59 255.81 199.651C255.81 199.651 250 203.826 247.478 213.844C247.478 213.844 250.153 209.113 252.446 210.226C252.446 210.226 246.866 219.131 245.261 224.14C245.261 224.14 248.395 219.966 250.306 221.357C250.306 221.357 244.343 228.315 243.044 230.819C243.044 230.819 247.095 226.088 248.777 228.871C248.777 228.871 241.974 235.272 240.521 242.785C240.521 242.785 243.503 235.55 245.49 236.663C245.49 236.663 239.069 247.795 237.999 255.587C237.999 255.587 240.827 249.464 242.662 250.577C242.662 250.577 233.183 261.431 231.883 279.797L230.889 280.91Z" fill="#1F004A"/>
<path d="M231.654 278.406C249.542 288.981 261.39 320.427 261.467 384.154C261.467 384.154 259.326 366.622 257.492 356.882C257.492 356.882 258.256 372.466 255.886 378.31C255.886 378.31 256.574 359.665 254.205 349.925C254.205 349.925 255.428 360.778 254.205 366.901C254.205 366.901 253.746 344.638 250.841 336.011C250.841 336.011 251.988 345.751 251.3 354.934C251.3 354.934 249.236 334.063 247.936 328.219C247.936 328.219 248.854 339.907 248.089 347.699C248.089 347.699 246.713 325.158 246.102 320.427C246.102 320.427 247.019 335.733 245.872 342.69C245.872 342.69 244.802 316.809 242.585 311.8C242.585 311.8 244.42 322.653 243.808 330.445C243.808 330.445 241.133 306.513 238.763 303.173C238.763 303.173 240.368 313.47 239.757 320.705C239.757 320.705 237.616 284.806 231.883 282.024L231.654 278.406Z" fill="#1F004A"/>
<path d="M230.584 290.372C234.253 261.709 245.108 243.899 255.428 249.743C265.671 254.195 275.38 282.58 276.068 315.974C276.22 315.974 272.933 295.938 269.417 286.754C269.57 286.754 272.016 302.338 269.646 307.348C269.723 307.626 269.111 289.259 264.754 281.189C264.83 281.189 267.659 290.65 266.971 296.773C267.2 297.051 263.76 275.623 258.791 272.284C258.791 272.284 261.925 279.241 262.461 287.868C262.613 287.589 257.033 272.284 254.281 270.892C254.281 270.614 257.721 278.128 258.18 285.641C258.409 285.363 252.752 270.336 250.765 268.666C250.841 268.388 255.122 277.571 255.351 284.806C255.657 284.528 249.159 267.831 245.872 270.892C245.872 270.614 250.153 273.119 251.223 279.797C251.453 278.962 243.426 270.336 240.98 276.18C240.98 275.901 244.802 276.736 246.102 282.58C246.637 281.189 234.788 269.779 231.883 290.094C231.348 290.372 230.966 290.372 230.584 290.372Z" fill="#1F004A"/>
<path d="M232.036 280.076C241.974 314.861 245.643 353.265 238.075 393.059C238.075 393.059 238.84 378.589 238.84 369.683C238.84 369.683 237.464 380.815 235.247 380.537C235.247 380.537 237.922 369.962 237.616 360.222C237.616 360.222 237.081 368.849 235.552 370.797C235.552 370.797 237.922 356.047 237.158 346.029C237.158 346.029 236.699 354.099 235.17 358.552C235.17 358.552 236.393 342.412 236.24 336.568C236.24 336.568 235.4 345.194 234.024 348.812C234.024 348.812 235.858 332.672 236.011 328.497C236.011 328.497 234.788 339.629 233.259 342.133C233.259 342.133 235.705 324.323 234.864 317.644C234.864 317.644 234.788 327.384 233.412 331.28C233.412 331.28 234.559 312.078 233.488 306.234C233.488 306.234 233.259 315.14 231.96 318.757C231.96 318.757 234.864 292.877 231.654 282.024L232.036 280.076Z" fill="#1F004A"/>
<path d="M181.813 767.909C181.813 767.909 181.813 767.631 181.889 766.796C181.966 765.961 182.042 764.848 182.195 763.457C182.424 760.674 182.806 756.221 183.112 750.934C183.494 745.647 183.953 738.968 184.335 731.454C184.794 723.94 185.176 715.314 185.558 705.852C185.941 696.39 186.323 686.372 186.552 675.519C186.858 664.666 187.011 653.256 187.087 641.29C187.087 635.446 187.164 629.323 187.087 623.201C187.087 617.079 187.011 610.957 186.934 604.834C186.858 598.712 186.705 592.312 186.552 586.189C186.399 579.789 186.17 573.666 186.017 567.266C185.558 554.743 185.023 542.22 184.259 530.254C183.877 524.132 183.571 518.009 183.112 512.165C182.883 509.104 182.73 506.321 182.501 503.26C182.271 500.477 182.042 497.416 181.813 494.633C181.583 491.851 181.354 489.068 181.125 486.285C180.895 483.502 180.59 480.719 180.36 478.215C179.825 472.927 179.366 467.64 178.831 462.631C178.296 457.622 177.761 452.612 177.226 447.882C176.691 443.151 176.156 438.698 175.621 434.246C175.086 429.793 174.551 425.897 174.015 422.001C173.48 418.105 173.022 414.487 172.487 411.148C171.493 404.469 170.652 398.347 169.811 393.894C168.206 384.433 167.365 379.145 167.365 379.145L165.76 382.763C165.76 382.763 166.6 388.05 168.129 397.512C168.894 402.243 169.658 408.087 170.652 414.766C171.111 418.105 171.569 421.723 172.104 425.619C172.563 429.515 173.098 433.411 173.633 437.863C174.092 442.038 174.627 446.49 175.162 451.221C175.697 455.952 176.156 460.683 176.615 465.692C177.15 470.701 177.532 475.988 177.99 481.276C178.22 484.059 178.449 486.563 178.678 489.346C178.908 492.129 179.061 494.912 179.29 497.695C179.519 500.477 179.749 503.26 179.902 506.043C180.054 508.826 180.284 511.887 180.437 514.67C180.819 520.514 181.125 526.358 181.43 532.202C182.042 544.168 182.501 556.413 182.883 568.657C183.036 574.78 183.189 580.902 183.342 587.024C183.418 593.146 183.571 599.269 183.571 605.391C183.647 611.513 183.647 617.357 183.647 623.479C183.647 629.323 183.571 635.167 183.494 641.011C183.342 652.421 183.112 663.553 182.806 674.127C182.501 684.702 182.042 694.442 181.66 703.626C181.201 712.809 180.742 720.879 180.284 728.393C179.825 735.628 179.366 742.029 178.984 747.038C178.602 752.047 178.22 756.221 177.99 758.726C177.761 761.231 177.608 762.622 177.608 762.622L181.813 767.909Z" fill="#1F004A"/>
<path d="M166.371 381.928C161.096 417.27 160.944 449.83 169.352 473.762C169.352 473.762 167.824 463.466 167.212 456.787C167.212 456.787 168.97 464.022 170.652 461.796C170.652 461.796 167.9 456.23 167.441 448.16C167.441 448.16 168.435 454.282 169.735 454.56C169.735 454.56 166.983 445.377 166.906 437.028C166.906 437.028 167.747 442.594 169.276 444.82C169.276 444.82 167.288 433.411 166.983 428.958C166.983 428.958 168.206 434.802 169.505 436.472C169.505 436.472 166.983 425.897 166.6 422.836C166.6 422.836 168.282 430.071 169.658 430.906C169.658 430.906 166.6 419.496 166.753 413.653C166.753 413.653 167.518 420.888 168.817 422.836C168.817 422.836 166.6 409.2 167.059 403.913C167.059 403.913 167.824 410.591 169.047 412.261C169.047 412.261 165.072 395.007 166.83 383.876L166.371 381.928Z" fill="#1F004A"/>
<path d="M166.6 380.258C153.223 400.573 145.578 433.411 148.789 482.946C148.789 482.946 149.554 467.64 150.471 459.013C150.471 459.013 150.624 471.814 152.841 474.597C152.841 474.597 151.312 460.683 152.688 451.221C152.688 451.221 152.305 460.404 153.529 464.579C153.529 464.579 152.764 446.768 154.599 438.142C154.599 438.142 154.217 446.49 155.21 453.169C155.21 453.169 155.745 435.637 156.51 430.071C156.51 430.071 156.357 439.811 157.427 445.377C157.427 445.377 157.351 427.01 157.58 422.836C157.58 422.836 157.657 435.359 158.88 440.09C158.88 440.09 158.345 419.218 159.873 413.931C159.873 413.931 158.956 423.671 159.873 429.236C159.873 429.236 160.714 408.643 162.396 404.747C162.396 404.747 161.708 413.931 162.549 419.218C162.549 419.218 162.396 389.72 166.677 383.598L166.6 380.258Z" fill="#1F004A"/>
<path d="M167.288 381.928C153.681 363.561 141.986 368.57 135.029 412.818C135.029 412.818 138.469 403.634 140.763 399.46C140.763 399.46 138.546 409.2 139.616 416.714C139.616 416.714 141.145 402.799 143.897 399.182C143.897 399.182 141.909 405.026 142.062 411.148C142.062 411.148 144.814 396.399 147.795 394.451C147.795 394.451 145.884 399.738 145.426 406.974C145.426 406.974 149.095 395.564 150.7 393.338C150.7 393.338 148.789 400.017 148.483 406.695C148.483 406.695 151.847 393.059 152.841 390.555C152.841 390.555 150.547 400.017 150.547 406.417C150.547 406.417 154.064 389.998 156.204 389.72C156.204 389.72 153.758 394.451 153.299 401.13C153.299 401.13 157.733 388.329 159.721 389.442C159.721 389.442 157.504 394.451 157.121 400.295C157.121 400.295 162.549 378.31 166.83 384.433L167.288 381.928Z" fill="#1F004A"/>
<path d="M167.594 385.267C160.485 338.794 150.165 314.305 135.794 330.724C135.794 330.724 140.38 332.115 142.979 334.62C142.979 334.62 139.234 336.568 138.546 344.638C138.546 344.638 142.597 337.959 145.426 341.855C145.426 341.855 142.674 341.298 141.527 346.307C141.527 346.307 146.725 341.855 149.477 347.421C149.477 347.421 146.954 346.864 145.043 351.038C145.043 351.038 150.318 351.317 152 353.543C152 353.543 149.095 354.099 147.566 358.274C147.566 358.274 152.993 356.047 154.293 356.604C154.293 356.604 150.547 357.995 149.248 363.005C149.248 363.005 155.363 359.109 157.121 364.118C157.121 364.118 154.217 361.891 152.535 365.509C152.535 365.509 158.65 366.622 160.026 372.188C160.026 372.188 157.274 370.518 155.745 374.136C155.745 374.136 164.46 370.797 166.6 385.546L167.594 385.267Z" fill="#1F004A"/>
<path d="M166.142 383.041C162.855 336.846 164.766 295.103 175.315 265.605C175.315 265.605 173.022 278.684 171.875 287.311C171.875 287.311 174.245 278.406 175.927 281.189C175.927 281.189 172.639 288.146 171.646 298.164C171.646 298.164 173.098 290.372 174.474 290.372C174.474 290.372 170.881 301.782 170.27 312.357C170.27 312.357 171.569 305.121 173.327 302.617C173.327 302.617 170.423 316.809 169.888 322.653C169.888 322.653 171.569 315.14 173.098 313.47C173.098 313.47 169.735 326.828 169.123 330.724C169.123 330.724 171.416 321.54 172.869 320.984C172.869 320.984 168.894 335.176 168.664 342.69C168.664 342.69 169.964 333.506 171.416 331.28C171.416 331.28 168.206 348.534 168.282 355.491C168.282 355.491 169.582 347.142 170.958 345.194C170.958 345.194 165.607 366.622 166.753 381.093L166.142 383.041Z" fill="#1F004A"/>
<path d="M166.448 379.98C180.054 361.335 191.75 365.787 198.783 410.035C198.783 410.035 195.343 400.851 193.05 396.955C193.05 396.955 195.343 406.695 194.273 414.209C194.273 414.209 192.744 400.295 189.992 396.677C189.992 396.677 191.98 402.243 191.903 408.643C191.903 408.643 189.151 393.894 186.17 391.946C186.17 391.946 188.081 396.955 188.54 404.469C188.54 404.469 184.794 393.059 183.265 390.833C183.265 390.833 185.176 397.512 185.482 404.191C185.482 404.191 182.042 390.555 181.125 388.05C181.125 388.05 183.418 397.234 183.418 403.913C183.418 403.913 179.825 387.494 177.761 387.215C177.761 387.215 180.284 391.946 180.666 398.347C180.666 398.347 176.156 385.546 174.168 386.659C174.168 386.659 176.385 391.39 176.767 397.512C176.767 397.512 171.34 375.806 167.059 381.928L166.448 379.98Z" fill="#1F004A"/>
<path d="M166.983 389.998C166.371 364.674 171.951 336.568 179.749 325.436C187.393 313.748 197.178 319.036 201.382 341.298C201.459 341.02 196.948 331.837 193.509 330.724C193.585 330.445 197.025 337.681 195.955 344.638C196.031 344.638 193.585 332.95 189.686 333.785C189.686 333.506 192.744 336.011 192.973 341.298C193.126 341.02 188.463 331.28 184.565 336.289C184.565 336.289 187.546 336.289 188.845 341.577C188.922 341.02 183.342 338.794 181.278 341.577C181.278 341.298 184.488 341.577 185.558 346.029C185.635 345.473 180.131 343.246 178.602 345.194C178.602 344.916 182.654 344.916 183.571 349.647C183.724 349.09 177.379 346.864 175.468 353.821C175.468 353.543 178.678 349.09 180.207 352.151C180.284 351.317 173.786 356.882 172.716 364.396C172.716 364.396 175.391 359.387 176.997 361.335C177.226 359.665 167.747 369.127 167.976 387.215C167.518 388.885 167.288 389.442 166.983 389.998Z" fill="#1F004A"/>
<path d="M166.906 380.815C177.608 390.555 184.412 411.704 183.571 450.386C183.571 450.386 182.501 439.255 181.507 433.132C181.507 433.132 181.813 442.872 180.207 445.934C180.207 445.934 180.895 434.802 179.596 428.402C179.596 428.402 180.207 435.08 179.366 438.698C179.366 438.698 179.366 425.062 177.761 419.218C177.761 419.218 178.296 425.34 177.761 430.906C177.761 430.906 176.767 417.827 176.079 414.209C176.079 414.209 176.462 421.444 175.927 426.175C175.927 426.175 175.391 412.261 175.086 409.2C175.086 409.2 175.468 418.662 174.703 422.836C174.703 422.836 174.398 406.974 173.098 403.634C173.098 403.634 174.092 410.591 173.557 415.322C173.557 415.322 172.257 400.295 170.881 397.79C170.881 397.79 171.722 404.191 171.263 408.643C171.263 408.643 170.423 386.381 166.983 383.598L166.906 380.815Z" fill="#1F004A"/>
<path d="M402 0H0V821.734H402V0Z" fill="url(#paint14_linear_2_2)"/>
</g>
<defs>
<linearGradient id="paint0_linear_2_2" x1="201" y1="2.90366" x2="201" y2="37.9676" gradientUnits="userSpaceOnUse">
<stop stop-color="#1F004A"/>
<stop offset="1" stop-color="#1F004A" stop-opacity="0"/>
</linearGradient>
<linearGradient id="paint1_linear_2_2" x1="201" y1="63.0132" x2="201" y2="95.2943" gradientUnits="userSpaceOnUse">
<stop stop-color="#1F004A"/>
<stop offset="1" stop-color="#1F004A" stop-opacity="0"/>
</linearGradient>
<linearGradient id="paint2_linear_2_2" x1="201" y1="120.34" x2="201" y2="149.838" gradientUnits="userSpaceOnUse">
<stop stop-color="#1F004A"/>
<stop offset="1" stop-color="#1F004A" stop-opacity="0"/>
</linearGradient>
<linearGradient id="paint3_linear_2_2" x1="201" y1="174.884" x2="201" y2="201.599" gradientUnits="userSpaceOnUse">
<stop stop-color="#1F004A"/>
<stop offset="1" stop-color="#1F004A" stop-opacity="0"/>
</linearGradient>
<linearGradient id="paint4_linear_2_2" x1="201" y1="226.645" x2="201" y2="250.577" gradientUnits="userSpaceOnUse">
<stop stop-color="#1F004A"/>
<stop offset="1" stop-color="#1F004A" stop-opacity="0"/>
</linearGradient>
<linearGradient id="paint5_linear_2_2" x1="201" y1="272.84" x2="201" y2="293.99" gradientUnits="userSpaceOnUse">
<stop stop-color="#1F004A"/>
<stop offset="1" stop-color="#1F004A" stop-opacity="0"/>
</linearGradient>
<linearGradient id="paint6_linear_2_2" x1="201" y1="321.818" x2="201" y2="340.185" gradientUnits="userSpaceOnUse">
<stop stop-color="#1F004A"/>
<stop offset="1" stop-color="#1F004A" stop-opacity="0"/>
</linearGradient>
<linearGradient id="paint7_linear_2_2" x1="201" y1="365.231" x2="201" y2="380.815" gradientUnits="userSpaceOnUse">
<stop stop-color="#1F004A"/>
<stop offset="1" stop-color="#1F004A" stop-opacity="0"/>
</linearGradient>
<linearGradient id="paint8_linear_2_2" x1="201" y1="405.861" x2="201" y2="418.662" gradientUnits="userSpaceOnUse">
<stop stop-color="#1F004A"/>
<stop offset="1" stop-color="#1F004A" stop-opacity="0"/>
</linearGradient>
<linearGradient id="paint9_linear_2_2" x1="201" y1="443.707" x2="201" y2="453.725" gradientUnits="userSpaceOnUse">
<stop stop-color="#1F004A"/>
<stop offset="1" stop-color="#1F004A" stop-opacity="0"/>
</linearGradient>
<linearGradient id="paint10_linear_2_2" x1="201" y1="478.771" x2="201" y2="486.285" gradientUnits="userSpaceOnUse">
<stop stop-color="#1F004A"/>
<stop offset="1" stop-color="#1F004A" stop-opacity="0"/>
</linearGradient>
<linearGradient id="paint11_linear_2_2" x1="201" y1="511.33" x2="201" y2="516.061" gradientUnits="userSpaceOnUse">
<stop stop-color="#1F004A"/>
<stop offset="1" stop-color="#1F004A" stop-opacity="0"/>
</linearGradient>
<linearGradient id="paint12_linear_2_2" x1="201" y1="541.107" x2="201" y2="543.055" gradientUnits="userSpaceOnUse">
<stop stop-color="#1F004A"/>
<stop offset="1" stop-color="#1F004A" stop-opacity="0"/>
</linearGradient>
<linearGradient id="paint13_linear_2_2" x1="200.962" y1="103.302" x2="200.962" y2="716.851" gradientUnits="userSpaceOnUse">
<stop stop-color="#0078FF"/>
<stop offset="0.0311249" stop-color="#246BF8"/>
<stop offset="0.1161" stop-color="#804AE6"/>
<stop offset="0.1851" stop-color="#C531D8"/>
<stop offset="0.2346" stop-color="#EF22D0"/>
<stop offset="0.2599" stop-color="#FF1CCD"/>
<stop offset="0.3132" stop-color="#FF30B5"/>
<stop offset="0.4451" stop-color="#FF5C7E"/>
<stop offset="0.5739" stop-color="#FF8251"/>
<stop offset="0.6966" stop-color="#FF9E2E"/>
<stop offset="0.8116" stop-color="#FFB315"/>
<stop offset="0.9159" stop-color="#FFC005"/>
<stop offset="1" stop-color="#FFC400"/>
</linearGradient>
<linearGradient id="paint14_linear_2_2" x1="201" y1="0" x2="201" y2="821.734" gradientUnits="userSpaceOnUse">
<stop offset="0.655618" stop-color="#1F004A" stop-opacity="0"/>
<stop offset="0.864327" stop-color="#1F004A"/>
</linearGradient>
<clipPath id="clip0_2_2">
<rect width="402" height="874" fill="white"/>
</clipPath>
</defs>
</svg>
